<?xml version="1.0" encoding="utf-8"?>
<!-- Generator: Adobe Illustrator 24.2.0, SVG Export Plug-In . SVG Version: 6.00 Build 0)  -->
<svg version="1.1" id="Layer_1" xmlns="http://www.w3.org/2000/svg" xmlns:xlink="http://www.w3.org/1999/xlink" x="0px" y="0px"
	 viewBox="0 0 64 64" style="enable-background:new 0 0 64 64;" xml:space="preserve">
<style type="text/css">
	.st0{fill:#3A393D;}
	.st1{fill:#D60535;}
	.st2{fill:#FBFBFB;}
</style>
<g>
	<path class="st0" d="M11.9,33.8c-0.5-0.6-1-1.3-1-2.1c0.4,0.5,0.9,0.5,1.5,0.5c0.4,0,0.8,0.1,1.2,0.4c-0.2-0.7,0.2-1.1,0.5-1.5
		c0.2-0.3,0.3-0.5,0.3-0.8c0,0,0-0.1,0-0.1c0.1,0,0.1,0,0.1,0.1c0.4,0.3,0.6,0.7,0.7,1.1c0.2,0.5,0.3,0.9,0.3,1.4c0,0,0,0.1,0.1,0.1
		c0.1,0,0.1,0,0.1-0.1c0-0.1,0-0.2,0-0.3c0,0,0-0.1,0-0.1c0,0,0.1,0,0.1,0c0,0,0,0,0,0c0.3,0.3,0.5,0.3,0.9,0.2
		c0.7-0.2,1.3-0.3,2-0.4c1-0.2,2-0.3,2.9-0.5c0.8-0.1,1.6-0.2,2.4-0.3c0.6-0.1,1.3-0.1,2-0.2c0.6-0.1,1.2,0,1.7-0.1
		c0.2,0,0.4,0,0.6,0C30.1,31,32,31,33.9,31c0.7,0,1.4,0.1,2.1,0.1c0.5,0,0.9,0.1,1.4,0.1c0.6,0,1.2,0.1,1.8,0.2
		c0.6,0.1,1.2,0.1,1.8,0.2c0.6,0.1,1.1,0.2,1.7,0.3c0.8,0.1,1.6,0.2,2.4,0.4c0.6,0.1,1.1,0.2,1.7,0.3c0.3,0.1,0.5,0.1,0.8,0.2
		c0.1,0,0.1,0,0.2-0.1c0.1-0.1,0.3-0.2,0.4-0.3c0.1,0.1-0.1,0.2,0,0.3c0,0.1,0,0.2,0.1,0.2c0.1,0,0.1-0.1,0.1-0.2
		c0-0.8,0.3-1.6,0.8-2.2c0.1-0.1,0.2-0.2,0.3-0.3c-0.1,0.5,0.2,0.9,0.5,1.3c0.2,0.4,0.4,0.7,0.3,1.2c0.2-0.2,0.5-0.4,0.8-0.4
		c0.2,0,0.4-0.1,0.7-0.1c0.5,0,0.9-0.1,1.2-0.5c0,0.3-0.1,0.7-0.2,1c-0.2,0.3-0.3,0.7-0.6,0.9c-0.1,0.1-0.1,0.1,0.1,0.2
		c0.7,0.2,1.4,0.4,2,0.6c0.5,0.2,1,0.3,1.4,0.5c0.1,0,0.1,0.1,0.1,0.2c-0.2,0.6-0.5,1.3-0.7,1.9c-0.4,1-0.7,2.1-1.1,3.1
		c0,0.1,0,0.1,0.1,0.2c0.9,0.5,1.8,1.1,2.8,1.7c0.4,0.2,0.7,0.5,1.1,0.7c0.1,0.1,0.2,0.2,0,0.3c-0.5,0.4-0.9,0.8-1.4,1.2
		c-0.5,0.4-0.9,0.8-1.4,1.2c-0.1,0.1-0.2,0.2-0.3,0.3c-0.2,0.1-0.2,0.3-0.2,0.5c0.1,0.5,0.1,1,0.2,1.5c0.1,0.5,0.1,1.1,0.1,1.7
		c0,0.2,0,0.4,0.1,0.5c0,0,0,0.1,0,0.1c0,0-0.1,0-0.1,0c-0.3-0.2-0.7-0.5-1-0.7c-0.7-0.4-1.4-0.9-2-1.3c-0.7-0.4-1.4-0.8-2-1.2
		c-0.6-0.3-1.2-0.7-1.9-1c-1-0.5-2-1-3-1.4c-0.5-0.2-0.9-0.4-1.4-0.6c-0.1,0-0.1-0.1,0-0.2c0.1-0.6,0.2-1.1,0.3-1.7c0,0,0-0.1,0-0.1
		c-0.1,0.1-0.2,0.1-0.4,0.2c-0.6,0.3-1.3,0.4-2,0.3c-0.2,0-0.4-0.2-0.5-0.3c0,0-0.1-0.1,0-0.1c0-0.1,0.1,0,0.1,0
		c0.6,0.2,1.2,0.3,1.8,0.1c-0.3,0-0.7,0-1-0.1c-0.3-0.1-0.6-0.1-0.8-0.3c-0.1,0-0.1-0.1-0.1-0.2c0.2-0.3,0.4-0.6,0.7-0.8l-0.6,0.1
		c0,0-0.1,0-0.1,0c-0.4,0.1-0.5-0.1-0.5-0.5c0-0.2,0.1-0.4,0.2-0.6c0-0.1,0.1-0.1,0.1-0.2c-0.3,0.3-0.4,0.7-0.5,1.2
		c-0.2-0.2-0.2-0.4-0.1-0.6c0-0.2,0.1-0.3,0.2-0.5c0,0,0.1-0.1,0-0.1c-0.1,0-0.1,0-0.2,0c-0.1,0.1-0.1,0.2-0.2,0.3
		c-0.1,0.3-0.1,0.6-0.1,0.8c0,0.5-0.1,0.9-0.5,1.2c0.6-0.1,1,0.2,1.5,0.5c0.3,0.2,0.7,0.4,1.2,0.3c-0.2,0.3-0.5,0.6-0.9,0.7
		c-0.7,0.3-1.4,0.5-2.2,0.4c-0.3,0-0.6-0.1-0.7-0.4c0,0-0.1-0.1,0-0.2c0.1-0.1,0.1,0,0.1,0c0.5,0.2,1.1,0.3,1.7,0.3
		c-0.3,0-0.6-0.1-0.9-0.1c-0.3-0.1-0.6-0.2-0.8-0.3c-0.1-0.1-0.1-0.1-0.1-0.3c0.2-0.3,0.5-0.5,0.7-0.7c-0.2,0-0.4,0.1-0.7,0.1
		c-0.2,0-0.3,0-0.4-0.1c-0.1,0-0.1-0.1-0.1-0.1c0-0.1,0-0.3,0.1-0.4c0.1-0.4,0.3-0.7,0.5-1c-0.4,0.4-0.6,0.8-0.8,1.4
		c-0.2-0.3-0.1-0.5-0.1-0.7c0.2-0.5,0.6-0.9,1.1-1.3c0.3-0.2,0.6-0.4,0.9-0.5c-0.2-0.1-3.6-0.4-5-0.4c-1.7-0.1-3.3-0.1-5,0
		s-3.3,0.2-5,0.4c0.3,0.1,0.6,0.3,0.9,0.5c0.5,0.3,0.9,0.7,1.1,1.3c0.1,0.2,0.1,0.4,0,0.5c0,0,0,0.1-0.1,0.1c-0.1,0,0-0.1-0.1-0.1
		c-0.1-0.4-0.4-0.8-0.7-1.2c0,0,0-0.1-0.1,0c0.2,0.3,0.4,0.6,0.5,0.9c0,0.1,0.1,0.3,0.1,0.4c0,0.2-0.1,0.2-0.2,0.2c-0.3,0-0.7,0-1,0
		c0.3,0.2,0.5,0.4,0.7,0.7c0.1,0.1,0.1,0.2-0.1,0.3c-0.3,0.2-0.7,0.4-1.1,0.4c-0.2,0-0.4,0-0.5,0.1c0.6,0.1,1.3,0,1.9-0.3
		c0,0.3-0.2,0.4-0.4,0.5c-0.4,0.2-0.7,0.2-1.1,0.1c-0.7-0.1-1.4-0.3-2-0.7c-0.2-0.1-0.3-0.3-0.4-0.4c0.2,0,0.4,0.1,0.6,0
		c0.3-0.1,0.6-0.2,0.9-0.5c0.3-0.3,0.8-0.4,1.2-0.4c-0.1-0.1-0.2-0.2-0.3-0.3c-0.1-0.2-0.2-0.5-0.2-0.8c0-0.3,0-0.7-0.1-1
		c0-0.1-0.1-0.1-0.1-0.2c0-0.1-0.1,0-0.1,0c-0.1,0,0,0.1,0,0.1c0.1,0.2,0.2,0.5,0.2,0.8c0,0.1,0,0.2-0.1,0.3
		c-0.1-0.4-0.2-0.8-0.5-1.1c-0.1,0.1,0,0.2,0,0.3c0.1,0.3,0.2,0.5,0.2,0.8c0,0.1,0,0.2-0.1,0.2c-0.4,0.1-0.7,0-1-0.1
		c0.2,0.2,0.4,0.4,0.6,0.6c0.2,0.3,0.2,0.3-0.1,0.5c-0.4,0.2-0.9,0.3-1.3,0.2c-0.1,0-0.2,0-0.2,0c0.6,0.1,1.3,0.1,1.9-0.2
		c0,0.2-0.2,0.4-0.4,0.4c-0.3,0.1-0.6,0.1-1,0.1c-0.5,0-0.9-0.2-1.3-0.4c0.1,0.5,0.2,1,0.3,1.5c0.1,0.3,0.1,0.3-0.2,0.5
		c-0.6,0.3-1.3,0.5-1.9,0.8c-0.8,0.4-1.6,0.8-2.4,1.2c-0.8,0.4-1.7,0.9-2.5,1.3c-1.3,0.8-2.6,1.5-3.8,2.4c-0.2,0.1-0.4,0.3-0.6,0.4
		c0,0-0.1,0.1-0.1,0c0,0-0.1-0.1,0-0.1c0.1-0.3,0.1-0.6,0.1-0.9c0.1-0.8,0.1-1.6,0.2-2.4c0-0.1,0-0.3,0-0.4c0-0.2,0-0.3-0.2-0.4
		c-0.9-0.8-1.8-1.6-2.7-2.4c-0.1-0.1-0.3-0.3-0.4-0.4c-0.1-0.1-0.1-0.1,0-0.2c0.7-0.5,1.5-1,2.3-1.5c0.5-0.3,1.1-0.6,1.6-1
		c0.1,0,0.1-0.1,0.1-0.2c-0.4-1.1-0.8-2.3-1.2-3.4c-0.2-0.6-0.4-1.1-0.6-1.7c0-0.1,0-0.1,0.1-0.2c0.5-0.2,0.9-0.3,1.4-0.5
		c0.6-0.2,1.1-0.4,1.7-0.5C11.7,33.9,11.8,33.9,11.9,33.8z M32,31.7c-1.2,0-2.5,0-3.7,0.1c-0.9,0.1-1.8,0-2.7,0.1c0,0,0,0-0.1,0
		c-0.3,0.1-0.7,0.1-1,0.1c-0.5,0-0.9,0.2-1.4,0.2c-0.5,0.1-1,0.1-1.5,0.2c-0.3,0.1-0.6,0-0.9,0.1c-0.4,0.1-0.8,0.1-1.2,0.2
		c-0.2,0-0.5,0-0.7,0.1c-0.2,0.1-0.4,0.1-0.6,0.1c-0.5,0.1-1,0.2-1.6,0.3c-0.2,0-0.4,0-0.6,0.1c-0.2,0.1-0.4,0.1-0.6,0.2
		c-0.2,0-0.5,0.1-0.7,0.2c-0.2,0.1-0.5,0.2-0.8,0.2c-0.4,0.1-0.9,0.2-1.3,0.4c-0.3,0.1-0.6,0.2-0.9,0.3c-0.3,0.1-0.7,0.1-1,0.3
		c-0.2,0.1-0.5,0.2-0.8,0.2c-0.2,0-0.3,0.1-0.5,0.2c-0.1,0-0.1,0.1-0.1,0.2c0.1,0.1,0.1,0.2,0.1,0.3c0.2,0.3,0.3,0.7,0.4,1.1
		c0.1,0.4,0.2,0.8,0.4,1.1c0.2,0.5,0.3,1,0.5,1.5c0.1,0.2,0,0.4,0.1,0.6c0.2,0.4,0.3,0.8,0.4,1.2c0.1,0.2,0.2,0.3,0.4,0.2
		c0.4-0.2,0.8-0.2,1.2-0.4c0.3-0.1,0.6-0.1,0.8-0.2c0.5-0.1,0.9-0.3,1.4-0.4c0.2,0,0.4-0.1,0.5-0.2c0.1-0.1,0.2-0.1,0.3-0.1
		c0.4-0.1,0.7-0.2,1.1-0.3c0.3-0.1,0.6-0.2,1-0.2c0.3,0,0.6,0,0.8-0.1c0.5-0.1,1-0.2,1.4-0.3c0.2,0,0.3-0.1,0.5-0.1
		c0.3,0,0.6-0.1,0.9-0.1c0.4-0.1,0.7-0.2,1.1-0.2c0.4,0,0.8-0.1,1.2-0.2c0.6-0.1,1.1-0.1,1.7-0.2c0.5,0,1.1-0.1,1.6-0.1
		c0.8-0.1,1.5-0.1,2.3-0.1c1.1-0.1,2.2,0,3.2,0c1.3,0,2.6,0,3.9,0.1c0,0,0.1,0,0.1,0c0.7,0.1,1.3,0.1,2,0.2c0.4,0.1,0.9,0.1,1.3,0.2
		c0.5,0,1,0.2,1.4,0.2c0.2,0,0.5,0,0.7,0.1c0.3,0.1,0.6,0.2,0.9,0.2c0.1,0,0.1,0,0.2,0c0.4,0.1,0.9,0.1,1.4,0.2
		c0.4,0.1,0.8,0.2,1.2,0.3c0.3,0.1,0.6,0.2,1,0.2c0.2,0,0.3,0,0.5,0.1c0.3,0.1,0.5,0.2,0.8,0.2c0.2,0,0.3,0.1,0.4,0.2
		c0.2,0.2,0.4,0.2,0.6,0.2c0.2,0.1,0.5,0.1,0.7,0.2c0.3,0.1,0.6,0.1,0.9,0.3c0.3,0.2,0.7,0.2,1,0.4c0.1,0.1,0.3,0.1,0.4,0.1
		c0.2,0,0.3,0,0.3-0.3c0-0.2,0.1-0.4,0.1-0.7c0.1-0.3,0.2-0.6,0.3-0.9c0.2-0.4,0.3-0.9,0.5-1.3c0.1-0.2,0.1-0.5,0.2-0.7
		c0.1-0.2,0.1-0.4,0.2-0.6c0.1-0.1,0.2-0.2,0.2-0.4c0-0.3,0.1-0.5,0.2-0.7c0.1-0.4,0.1-0.5-0.3-0.6c-0.1,0-0.2,0-0.4-0.1
		c-0.5-0.2-0.9-0.3-1.4-0.4c-0.4-0.1-0.8-0.2-1.2-0.3c-0.4-0.1-0.8-0.2-1.2-0.3c-0.5-0.2-0.9-0.2-1.4-0.3c-0.3-0.1-0.7-0.1-1-0.2
		c-0.1,0-0.2-0.1-0.3-0.1c-0.3,0-0.6-0.2-0.9-0.2c-0.2,0-0.4,0-0.6-0.1c-0.3-0.1-0.7-0.2-1-0.2c-0.5-0.1-1-0.2-1.5-0.3
		c-0.5-0.1-1-0.2-1.5-0.2c-0.2,0-0.4-0.1-0.6-0.1c-0.2-0.1-0.4-0.2-0.6-0.2c-0.5,0-1.1-0.1-1.6-0.2c-0.9-0.1-1.8-0.1-2.6-0.2
		c-0.5-0.1-1-0.1-1.5-0.1C34,31.6,33,31.7,32,31.7L32,31.7z M56.7,42.9c0-0.1,0-0.1-0.1-0.1c-0.2-0.1-0.4-0.3-0.6-0.4
		c-0.4-0.3-0.8-0.5-1.2-0.7c-0.4-0.2-0.7-0.4-1.1-0.7c-0.1,0-0.2-0.1-0.2,0c-0.1,0.3-0.2,0.6-0.3,0.9c-0.1,0.2-0.1,0.4-0.3,0.4
		c-0.5,0-1,0.1-1.6,0.1c-0.3,0-0.6,0-0.9,0.1c-0.4,0.1-0.8,0.2-1.2,0.1c-0.1,0-0.1,0-0.2,0c-0.3,0.1-0.6,0.2-1,0.2
		c-0.2,0-0.5,0.1-0.7,0.1c-0.4,0.1-0.7,0.1-1.1,0.2c0,0-0.1,0-0.1,0c-0.4,0.1-0.7,0.1-1.1,0.2c-0.2,0.1-0.4,0.1-0.6,0.1
		c-0.1,0-0.1,0.1-0.2,0.1c0,0.1,0.1,0.1,0.1,0.1c0.5,0.2,1,0.5,1.6,0.7c0.3,0.1,0.6,0.3,0.9,0.3c0,0,0,0,0.1,0
		c0.3,0.2,0.6,0.3,0.9,0.5c0.4,0.2,0.7,0.4,1.1,0.6c0.2,0.1,0.3,0.1,0.4,0.3c0,0,0.1,0.1,0.1,0.1c0.3,0.2,0.7,0.4,1,0.6
		c0.3,0.2,0.5,0.4,0.8,0.5c0.2,0.1,0.4,0.3,0.6,0.3c0.2,0.1,0.3,0.2,0.5,0.3c0.4,0.2,0.8,0.6,1.2,0.7c0.2,0.1,0.3,0.1,0.3-0.2
		c0-0.5,0-1-0.1-1.4c-0.1-0.3,0-0.7-0.1-1c-0.1-0.3,0-0.5,0.2-0.7c0.3-0.2,0.6-0.4,0.8-0.7c0.1-0.1,0.2-0.2,0.3-0.3
		c0.2-0.1,0.4-0.3,0.6-0.5c0,0,0.1-0.1,0.1-0.1c0.2,0,0.2-0.1,0.3-0.3c0,0,0-0.1,0.1-0.1c0.2,0,0.2-0.2,0.3-0.2
		C56.6,43.1,56.7,43,56.7,42.9z M10,48.4c0,0.2,0.1,0.3,0.2,0.2c0.2-0.2,0.6-0.3,0.8-0.6c0-0.1,0.1-0.2,0.2-0.2
		c0.5-0.1,0.8-0.5,1.2-0.6c0.2-0.1,0.5-0.3,0.7-0.4c0.5-0.3,1.1-0.6,1.6-0.9c0.2-0.1,0.4-0.2,0.7-0.4c0.3-0.2,0.7-0.3,1-0.5
		c0.4-0.3,0.8-0.4,1.2-0.6c0.4-0.2,0.8-0.4,1.2-0.5c0.2-0.1,0.5-0.2,0.7-0.3c0.1-0.1,0.1-0.1,0-0.1c-0.2-0.1-0.3-0.2-0.5-0.2
		c-0.1,0-0.2,0-0.3,0c-0.5-0.1-1-0.3-1.5-0.2c0,0-0.1,0-0.1,0c-0.2-0.2-0.5-0.2-0.8-0.2c-0.1,0-0.2,0-0.3,0
		c-0.5-0.1-0.9-0.1-1.4-0.2c-0.3-0.1-0.7,0-1-0.1c-0.3-0.1-0.7-0.1-1-0.1c-0.5,0-0.9-0.1-1.4-0.1c-0.1,0-0.1,0-0.2-0.1
		c-0.1-0.3-0.2-0.6-0.3-1c0-0.2-0.1-0.3-0.3-0.2c-0.2,0.1-0.4,0.1-0.5,0.3c-0.2,0.2-0.4,0.3-0.6,0.5c-0.2,0.1-0.3,0.1-0.5,0.2
		c-0.4,0.3-0.8,0.5-1.2,0.8c-0.3,0.2-0.3,0.3,0,0.5c0,0,0.1,0.1,0.1,0.1C8.1,43.6,8.5,44,9,44.4C9,44.4,9,44.5,9.1,44.6
		c0.2,0.1,0.3,0.3,0.5,0.4c0.1,0.1,0.2,0.2,0.3,0.3c0.2,0.1,0.3,0.3,0.3,0.6c-0.1,0.3-0.1,0.6-0.1,0.9C10,47.3,9.9,47.8,10,48.4z
		 M43.3,39.8c-0.4-0.1-0.7-0.1-1.1-0.2c0,0-0.1,0-0.1,0c0,0.3-0.2,0.5-0.4,0.7c0.4-0.1,0.7-0.1,1,0.1c0.3,0.1,0.6,0.3,0.8,0.4
		c0,0,0.1,0.1,0.2,0c0-0.1,0-0.2-0.1-0.2c-0.1,0-0.1,0-0.2-0.1c-0.1,0-0.2-0.1-0.3-0.2c0,0,0-0.1,0-0.1c0,0,0.1,0,0.1,0
		c0.1,0,0.3,0.1,0.4,0.1c0,0,0.1,0,0.1,0c0-0.1,0-0.1-0.1-0.1c-0.1,0-0.2-0.1-0.3-0.1C43.2,40.1,43.2,40.1,43.3,39.8z M21.9,40.3
		c-0.2-0.2-0.3-0.4-0.3-0.6c0-0.1-0.1-0.1-0.1-0.1c-0.3,0.1-0.6,0.1-0.9,0.2c0,0-0.1,0-0.1,0.1c0.1,0.3-0.1,0.2-0.2,0.3
		c-0.1,0-0.2,0.1-0.1,0.2c0,0.1,0.1,0,0.2,0c0.1,0,0.2-0.1,0.2,0c0,0.1-0.1,0.2-0.1,0.2c0,0-0.1,0.1-0.1,0.1c-0.1,0-0.1,0.1-0.1,0.1
		c0,0.1,0.1,0,0.2,0c0.2-0.1,0.4-0.2,0.5-0.3C21.2,40.3,21.5,40.2,21.9,40.3z M48.6,32.1L48.6,32.1c-0.1,0.2-0.1,0.4-0.1,0.6
		c0,0.1,0,0.1,0,0.2c0,0,0,0,0.1,0c0,0,0,0,0,0C48.6,32.6,48.6,32.3,48.6,32.1L48.6,32.1z M15.1,32c-0.1,0.3,0,0.5-0.1,0.8
		c0,0,0,0.1,0.1,0.1c0.1,0,0.1,0,0.1-0.1C15.2,32.6,15.2,32.3,15.1,32L15.1,32z M14,33.2c-0.1-0.1-0.1-0.2-0.3-0.2
		C13.8,33.1,13.8,33.3,14,33.2z"/>
	<path class="st0" d="M23.2,22.4c-0.4,0.2-0.8,0.1-1.2,0.1c-0.2,0-0.3,0-0.3,0.3c0,0.8,0,1.6,0,2.4c0,0.2,0,0.2,0.2,0.2
		c0.3,0,0.5,0,0.8,0c0.4,0,0.6,0.2,0.6,0.6c0,1.2,0,2.4,0,3.5c0,0.3-0.2,0.5-0.6,0.5c-0.9,0-1.9,0-2.8,0h-4.4
		c-0.5,0-0.7-0.1-0.7-0.7c0-0.9,0-1.7,0-2.6c0-0.4,0.2-0.5,0.5-0.5c0.1,0,0.1,0,0.1-0.1c0-1.3,0-2.7,0-4c0-0.1,0-0.1-0.1-0.1
		c-0.4,0-0.5-0.2-0.5-0.6c0-0.9,0-1.8,0-2.6c0-0.5,0.2-0.6,0.6-0.6c2,0,4,0,6,0c0.4,0,0.8,0,1.3,0c0.2,0,0.4,0,0.5,0.2
		c0.1,0.1,0.1,0,0.1,0c0.1-0.1,0.3-0.2,0.4-0.2c0.1,0,0.2,0,0.3,0h7.6c0.1,0,0.2,0,0.3,0c0.3,0,0.5,0.2,0.5,0.5c0,1,0,2,0,3
		c0,0.3,0,0.6,0,0.8c0,0.4-0.2,0.6-0.6,0.6c-0.7,0-1.4,0-2,0c-0.1,0-0.2,0-0.2,0.2c0,0.9,0,1.9,0,2.8c0,0.1,0,0.1,0.2,0.1
		c0.4,0,0.5,0.2,0.5,0.6c0,0.9,0,1.8,0,2.7c0,0.4-0.2,0.6-0.6,0.6c-1.4,0-2.7,0-4.1,0c-0.5,0-0.6-0.2-0.6-0.6c0-0.9,0-1.8,0-2.6
		c0-0.4,0.2-0.6,0.5-0.6c0.1,0,0.2,0,0.2-0.2c0-0.9,0-1.9,0-2.8c0-0.1,0-0.2-0.2-0.2c-0.6,0-1.3,0-1.9,0c-0.1,0-0.2,0-0.3,0
		c-0.3,0-0.4-0.1-0.4-0.4C23.2,22.5,23.2,22.5,23.2,22.4z M19.1,18.5L19.1,18.5l-3.5,0c-0.1,0-0.2,0-0.2,0.2c0,0.8,0,1.6,0,2.5
		c0,0.2,0.1,0.2,0.2,0.2c0.1,0,0.1,0,0.2,0c0.2,0,0.2,0.1,0.2,0.2c0,1.5,0,3,0,4.5c0,0.5,0,0.5-0.4,0.5c0,0-0.1,0-0.1,0
		c0,0-0.1,0.1-0.1,0.1c0.1,0.1,0,0.3,0,0.4c0,0.7,0,1.4,0,2.1c0,0.2,0,0.3,0.3,0.3l6.9,0c0.1,0,0.1,0,0.2,0c0.1,0,0.1-0.1,0.1-0.1
		c-0.1-0.1,0-0.2,0-0.4c0-1,0-2,0-2.9c0-0.2-0.1-0.2-0.2-0.2c-0.7,0-1.5,0-2.2,0c-0.1,0-0.2,0.1-0.2,0.2c0,0.1,0,0.3,0,0.4
		c0,0.1-0.1,0.2-0.2,0.2c-0.2,0-0.5,0-0.7,0c-0.1,0-0.3,0.1-0.4-0.1c-0.1-0.1,0-0.2,0-0.3c0-0.2,0-0.4,0-0.6c0-0.2,0-0.2,0.2-0.2
		c0.6,0,1.1,0,1.7,0c0.3,0,0.3,0,0.3-0.3c0-0.7,0-1.4,0-2.2c0-0.2,0-0.3-0.3-0.3c-0.6,0-1.2,0-1.8,0c-0.2,0-0.2-0.1-0.2-0.2
		c0-0.2,0-0.5,0-0.7c0-0.1,0-0.2,0.2-0.2c0.2,0,0.4,0,0.6,0c0.4,0,0.5,0,0.5,0.4c0,0.1,0.1,0.2,0.2,0.2c0.7,0,1.4,0,2.1,0
		c0.2,0,0.3-0.1,0.3-0.3c0-1,0-2,0-3c0-0.2-0.1-0.2-0.2-0.2C21.4,18.5,20.3,18.5,19.1,18.5z M27.9,18.5c-1.3,0-2.6,0-3.9,0
		c-0.2,0-0.3,0.1-0.3,0.3c0,1.2,0,2.4,0,3.6c0,0.1,0.1,0.2,0.2,0.2c0.6,0,1.2,0,1.8,0c0.2,0,0.3-0.1,0.3-0.3c0-0.2,0-0.4,0-0.5
		c0-0.2,0-0.3,0.2-0.3c0.2,0,0.3,0.1,0.3,0.3c0,0.5,0,1.1,0,1.6c0,0.8,0,1.6,0,2.4c0,0.3,0,0.5,0,0.8c0,0.1,0,0.2-0.2,0.2
		c-0.1,0-0.2,0-0.4,0c-0.2,0-0.2,0.1-0.2,0.2c0,0.8,0,1.6,0,2.4c0,0.2,0.1,0.2,0.2,0.2c1.3,0,2.6,0,3.8,0c0.2,0,0.2-0.1,0.2-0.2
		c0-0.8,0-1.6,0-2.4c0-0.2-0.1-0.2-0.2-0.2c-0.1,0-0.2,0-0.3,0c-0.1,0-0.1,0-0.1-0.1c0-0.3,0-0.7,0-1c0-0.8,0-1.5,0-2.3
		c0-0.1-0.1-0.2-0.1-0.3c0.1-0.4,0.1-0.8,0-1.3c0-0.1,0-0.2,0.1-0.2c0.1,0,0.2,0,0.3,0c0.1,0,0.2,0.1,0.1,0.2
		c-0.1,0.2-0.1,0.4,0,0.6c0,0.2,0,0.3,0.3,0.3c0.6,0,1.1,0,1.7,0c0.2,0,0.3-0.1,0.3-0.3c0-1.1,0-2.3,0-3.4c0-0.3,0-0.4-0.4-0.4
		L27.9,18.5z M19.6,22.1c0.1,0,0.2,0,0.2-0.1c0-0.1-0.1-0.1-0.2-0.1c-0.1,0-0.2,0-0.2,0.1C19.4,22.1,19.5,22,19.6,22.1z M19.5,26.1
		c0.1,0,0.2,0,0.2-0.2c0-0.1-0.1-0.2-0.2-0.2c-0.1,0-0.1,0.1-0.2,0.2C19.4,26.1,19.4,26.2,19.5,26.1z"/>
	<path class="st0" d="M36.9,18c1.2,0,2.4,0,3.6,0c0.5,0,0.7,0.1,0.7,0.7c0,1.1,0,2.2,0,3.3c0,0.4-0.2,0.5-0.5,0.5
		c-0.3,0-0.6,0-0.9,0c-0.1,0-0.1,0-0.1,0.1c0,0.9,0,1.7,0,2.6c0,0.1,0,0.1,0.1,0.1c0.3,0,0.6,0,0.9,0c0.4,0,0.5,0.2,0.5,0.5
		c0,1.2,0,2.4,0,3.6c0,0.3-0.2,0.5-0.5,0.5c-0.1,0-0.1,0-0.2,0h-7.1c-0.7,0-0.8-0.1-0.8-0.8c0-0.8,0-1.6,0-2.4
		c0-0.4,0.1-0.6,0.5-0.6c0.1,0,0.1,0,0.1-0.1c0-1.4,0-2.7,0-4.1c0-0.1,0-0.1-0.1-0.1c-0.2,0-0.4,0-0.5-0.2c-0.1-0.1-0.1-0.2-0.1-0.2
		c0-1,0-1.9,0-2.9c0-0.2,0.1-0.4,0.3-0.5c0.1,0,0.3,0,0.4,0C34.5,18,35.7,18,36.9,18z M36.9,29.5L36.9,29.5c1.2,0,2.3,0,3.5,0
		c0.2,0,0.2,0,0.2-0.2c0-1.1,0-2.1,0-3.2c0-0.2-0.1-0.2-0.2-0.2c-0.7,0-1.4,0-2.2,0c-0.2,0-0.2,0.1-0.2,0.2c0,0.1,0,0.2,0,0.4
		c0,0.1,0,0.2-0.2,0.2c-0.3,0-0.6,0-0.9,0c-0.1,0-0.2,0-0.2-0.2c0-0.3,0-0.5,0-0.8s0-0.3,0.3-0.3h1.8c0.1,0,0.2,0,0.3-0.2
		c0-0.2,0-0.3,0-0.5c0-0.6,0-1.3,0-1.9c0-0.2-0.1-0.3-0.3-0.3c-0.6,0-1.2,0-1.8,0c-0.2,0-0.3-0.1-0.3-0.3c0-0.2,0-0.5,0-0.7
		c0-0.1,0-0.2,0.2-0.2c0.3,0,0.6,0,0.9,0c0.1,0,0.2,0.1,0.2,0.2c0,0.1,0,0.1,0,0.2c0,0.2,0.1,0.3,0.3,0.3c0.7,0,1.4,0,2.1,0
		c0.2,0,0.2,0,0.2-0.2c0-1,0-2.1,0-3.1c0-0.2-0.1-0.3-0.3-0.3c-2,0-4.1,0-6.1,0c-0.3,0-0.6,0-1,0c-0.2,0-0.2,0.1-0.2,0.2
		c0,0.8,0,1.6,0,2.4c0,0.2,0.1,0.3,0.3,0.2c0.1,0,0.3,0,0.3,0.2c0,0,0,0.1,0,0.1c0,1.5,0,3.1,0,4.6c0,0.4,0,0.4-0.4,0.4
		c-0.2,0-0.3,0.1-0.3,0.3c0,0.8,0,1.5,0,2.3c0,0.3,0,0.3,0.3,0.3L36.9,29.5z M37.4,25.8c-0.2-0.1-0.1,0.1-0.1,0.2
		c0,0.1,0,0.1,0.2,0.1c0.1,0,0.2,0,0.2-0.2C37.5,25.8,37.5,25.8,37.4,25.8L37.4,25.8z M37.4,22c0.1,0,0.2,0,0.2-0.1
		c0-0.2-0.1-0.1-0.2-0.1s-0.1,0-0.1,0.1C37.2,22.1,37.3,22.1,37.4,22L37.4,22z"/>
	<path class="st0" d="M41.3,23.9c0-1.1,0-2.3,0-3.4c0-0.3,0.1-0.6,0.3-0.8c0.3-0.3,0.6-0.6,0.9-1c0.2-0.2,0.4-0.4,0.6-0.6
		c0.1-0.1,0.2-0.2,0.4-0.2c1.2,0,2.3,0,3.5,0c0.2,0,0.3,0.1,0.4,0.2c0.5,0.6,1,1.2,1.5,1.8c0.2,0.2,0.3,0.4,0.2,0.7c0,0.7,0,1.4,0,2
		c0,0.5-0.2,0.6-0.6,0.6c-0.8,0-1.6,0-2.4,0c-0.4,0-0.6-0.2-0.6-0.6c0-0.2,0-0.5,0-0.7c0-0.1,0-0.2-0.2-0.1c-0.1,0-0.2,0-0.2,0.1
		c0,1.3,0,2.7,0,4c0,0.1,0.1,0.1,0.2,0.1c0.1,0,0.2,0,0.2-0.1c0-0.3,0-0.6,0-0.9c0-0.4,0.2-0.6,0.6-0.6c0.9,0,1.7,0,2.6,0
		c0.3,0,0.5,0.2,0.5,0.5c0,0.8,0,1.7,0,2.5c0,0.2-0.1,0.4-0.2,0.5c-0.5,0.6-1.1,1.2-1.6,1.7c-0.1,0.1-0.3,0.2-0.4,0.2
		c-1.1,0-2.3,0-3.4,0c-0.2,0-0.3-0.1-0.4-0.2c-0.5-0.5-0.9-1.1-1.4-1.6c-0.2-0.2-0.4-0.5-0.4-0.9C41.3,26.1,41.3,25,41.3,23.9z
		 M41.7,23.9L41.7,23.9c0,1.1,0,2.2,0,3.3c0,0.2,0.1,0.4,0.2,0.5c0.1,0.1,0.2,0.2,0.3,0.3c0.3,0.5,0.7,0.9,1.1,1.3
		c0.1,0.1,0.3,0.2,0.4,0.2c0.9,0,1.9,0,2.8,0c0.2,0,0.4,0,0.6-0.2c0.1-0.1,0.2-0.2,0.3-0.3c0.1-0.1,0.2-0.2,0.3-0.3
		c0.2-0.3,0.4-0.6,0.7-0.9c0.1-0.1,0.1-0.1,0.2-0.2c0.1-0.2,0.1-0.5,0.1-0.8c0-0.6,0-1.1,0-1.7c0-0.2-0.1-0.3-0.3-0.3
		c-0.7,0-1.4,0-2.2,0C46,24.9,46,25,46,25.2c0,0.4,0,0.7,0,1.1c0,0.1-0.1,0.2-0.2,0.2c-0.3,0-0.6,0-0.9,0c-0.1,0-0.2,0-0.2-0.2
		c0-1.6,0-3.2,0-4.8c0-0.1,0.1-0.2,0.2-0.2c0.3,0,0.6,0,0.9,0c0.1,0,0.2,0,0.2,0.2c0,0.3,0,0.6,0,1c0,0.2,0,0.3,0.3,0.3
		c0.7,0,1.4,0,2.2,0c0.2,0,0.2-0.1,0.3-0.3c0-0.2,0-0.3,0-0.5c0-0.5,0-1,0-1.5c0-0.1,0-0.2-0.2-0.3c-0.2-0.1-0.3-0.3-0.4-0.5
		c-0.1-0.2-0.2-0.3-0.3-0.5c-0.1-0.2-0.3-0.3-0.4-0.5c-0.2-0.2-0.4-0.3-0.7-0.3c-1,0-1.9,0-2.9,0c-0.2,0-0.4,0.1-0.5,0.2
		c-0.3,0.2-0.4,0.6-0.8,0.8c0,0,0,0.1-0.1,0.1c-0.1,0.2-0.2,0.4-0.4,0.5c-0.2,0.1-0.3,0.3-0.3,0.6C41.7,21.7,41.7,22.8,41.7,23.9
		L41.7,23.9z"/>
	<path class="st0" d="M53.9,28.6c0.1,0.5,0,1-0.2,1.5c-0.3,0.7-0.7,1.3-1.4,1.7C52.1,32,51.8,32,51.6,32c-0.1,0-0.2,0-0.2-0.1
		c0-0.1,0.1-0.1,0.2-0.1c0.5-0.1,0.8-0.4,1.2-0.8c-0.1,0-0.1,0-0.2,0.1c-0.3,0.3-0.7,0.5-1.2,0.5c-0.1,0-0.2,0-0.2-0.2
		c0-0.3,0-0.7,0-1c-0.1,0.2-0.3,0.4-0.5,0.5c-0.5,0.3-0.4,0.4-0.7-0.1c-0.2-0.4-0.3-0.8-0.4-1.2c0,0.6,0.1,1.1,0.4,1.6
		c-0.3-0.1-0.4-0.3-0.5-0.5c-0.2-0.5-0.2-1.1-0.1-1.6c0.1-0.5,0.2-1,0.6-1.3c0,0,0-0.1,0.1,0c0,0.5,0.3,0.7,0.6,1
		c0.2,0.2,0.3,0.3,0.5,0.5c0.1,0.2,0.2,0.4,0.1,0.7c0.3-0.5,0.8-0.6,1.3-0.7c0.1,0,0.2-0.1,0.4-0.1C53.3,29.2,53.5,29.2,53.9,28.6z"
		/>
	<path class="st0" d="M12.5,30.6c0,0.3,0.1,0.6,0,1c0,0.2-0.1,0.2-0.2,0.2c-0.3-0.1-0.6-0.2-0.9-0.4c-0.1,0-0.1-0.1-0.2-0.1
		c0,0.2,0.1,0.2,0.2,0.2c0.3,0.2,0.5,0.3,0.8,0.4c0.1,0,0.1,0,0.1,0.1c0,0.1-0.1,0.1-0.1,0.1c-0.4,0.1-0.7-0.1-1-0.3
		c-0.8-0.6-1.2-1.4-1.4-2.3c0-0.2,0-0.5,0-0.7c0.3,0.6,0.9,0.7,1.4,0.8c0.4,0.1,0.7,0.2,1,0.6c-0.1-0.6,0.3-0.9,0.6-1.2
		c0.2-0.2,0.3-0.3,0.5-0.5c0.1-0.1,0.1-0.2,0.1-0.3c0-0.1-0.1-0.2,0-0.2s0.1,0.1,0.1,0.1c0.6,0.9,0.7,1.9,0.4,2.9
		c-0.1,0.2-0.2,0.4-0.5,0.5c0.2-0.5,0.4-1,0.4-1.6c-0.1,0.3-0.1,0.5-0.2,0.8c-0.1,0.2-0.2,0.4-0.3,0.6c-0.1,0.1-0.1,0.1-0.2,0
		C13,31,12.8,30.8,12.5,30.6C12.6,30.6,12.5,30.5,12.5,30.6z M11.2,31.2C11.1,31.2,11.1,31.2,11.2,31.2
		C11.1,31.2,11.1,31.2,11.2,31.2C11.1,31.2,11.1,31.2,11.2,31.2C11.1,31.2,11.2,31.2,11.2,31.2z"/>
	<path class="st0" d="M10.2,28.3c0.3,0.4,0.6,0.6,1,0.8c-0.1,0.1-0.3,0.1-0.4,0.1c-0.4-0.1-0.7-0.4-0.9-0.7
		c-0.5-0.8-0.8-1.6-0.7-2.5c0-0.1,0-0.2,0.1-0.2c0-0.1,0-0.1,0.1-0.2c0.1,0.2,0.1,0.4,0.3,0.5c0.2,0.2,0.6,0.4,0.9,0.5
		c0.2,0.1,0.4,0.2,0.6,0.4c0.2,0.1,0.3,0.3,0.4,0.5c0-0.6,0.4-0.9,0.8-1.2c0.2-0.2,0.5-0.3,0.7-0.6c0.1-0.1,0.1-0.2,0.2-0.4
		c0.2,0.3,0.3,0.6,0.3,0.9c0.1,0.7,0,1.4-0.3,2.1c-0.1,0.2-0.3,0.4-0.6,0.4c0.3-0.5,0.5-0.9,0.6-1.4c-0.2,0.3-0.3,0.6-0.5,0.9
		c-0.1,0.1-0.2,0.2-0.3,0.4c-0.1,0.1-0.2,0.1-0.3,0c-0.2-0.2-0.4-0.4-0.5-0.7c0,0,0-0.1-0.1-0.1c0,0.3,0,0.6-0.1,0.9
		c-0.1,0.3-0.1,0.3-0.4,0.2c-0.3-0.1-0.5-0.3-0.7-0.5C10.3,28.3,10.3,28.3,10.2,28.3C10.2,28.2,10.2,28.2,10.2,28.3
		C10.2,28.3,10.2,28.3,10.2,28.3z M10.2,28.2C10.2,28.1,10.2,28.1,10.2,28.2c-0.1-0.1-0.1-0.1-0.1,0C10.1,28.2,10.1,28.2,10.2,28.2
		C10.2,28.2,10.2,28.2,10.2,28.2z"/>
	<path class="st0" d="M53.8,27.9c-0.2,0.2-0.4,0.5-0.7,0.6c-0.2,0.1-0.4,0.2-0.6,0.3c-0.2,0.1-0.3,0.1-0.3-0.1
		c-0.1-0.3-0.1-0.7-0.1-1c-0.1,0.2-0.2,0.4-0.3,0.6c-0.3,0.4-0.4,0.4-0.7,0c-0.2-0.3-0.4-0.7-0.5-1.1c0,0,0-0.1-0.1-0.1
		c0,0.3,0.1,0.6,0.3,0.8c0.1,0.3,0.3,0.5,0.5,0.8c-0.2,0-0.3,0-0.4-0.2c-0.3-0.3-0.4-0.6-0.4-0.9c-0.2-0.7-0.2-1.3,0-2
		c0-0.1,0.1-0.2,0.1-0.3c0,0,0,0,0.1-0.1c0.1,0.6,0.6,0.8,1,1.1c0.3,0.2,0.5,0.4,0.6,0.7c0,0.1,0,0.2,0,0.3c0.2-0.6,0.7-0.7,1.1-0.9
		c0.3-0.1,0.5-0.3,0.8-0.5c0.1-0.1,0.1-0.3,0.2-0.5c0.1,0.3,0.2,0.6,0.2,0.9c-0.1,0.9-0.4,1.8-1,2.4c-0.2,0.2-0.3,0.3-0.6,0.4
		c-0.1,0-0.3,0-0.4-0.1C53,28.8,53.5,28.4,53.8,27.9C53.8,27.9,53.9,27.8,53.8,27.9C53.8,27.8,53.8,27.9,53.8,27.9z"/>
	<path class="st0" d="M35.4,41.6c-0.2,0.3-0.4,0.6-0.6,0.9c0,0,0,0.1-0.1,0.1c-0.1,0-0.1-0.1-0.1-0.1c-0.1-0.3,0.1-0.6,0.3-0.8
		c0.6-0.7,1.3-1.1,2.1-1.3c0.1,0,0.1,0,0.2,0c0.1,0,0.2,0,0.4,0c-0.5,0.4-0.5,0.9-0.6,1.4c-0.1,0.4-0.2,0.8-0.5,1
		c0.6-0.1,0.9,0.2,1.3,0.5c0.2,0.2,0.5,0.4,0.8,0.5c0.2,0,0.3,0,0.5,0c-0.3,0.3-0.6,0.5-0.9,0.7c-0.7,0.3-1.5,0.4-2.3,0.2
		c-0.2,0-0.4-0.1-0.5-0.2c-0.1-0.1-0.2-0.2-0.2-0.4c0.6,0.3,1.2,0.5,1.8,0.5c-0.4,0-0.7-0.1-1.1-0.2c-0.2-0.1-0.4-0.2-0.6-0.3
		c-0.1-0.1-0.1-0.1,0-0.2c0.2-0.3,0.5-0.5,0.8-0.7c-0.4,0-0.7,0.1-1,0c-0.1,0-0.2-0.1-0.1-0.2C35.1,42.3,35.3,42,35.4,41.6
		c0.1,0,0.2-0.1,0.3-0.3C35.6,41.4,35.5,41.5,35.4,41.6z"/>
	<path class="st0" d="M26.1,40.3c0.4-0.1,0.7,0,1,0.1c0.8,0.3,1.4,0.8,1.9,1.5c0.1,0.2,0.2,0.4,0.1,0.6c0,0.1,0,0.1-0.1,0.1
		c-0.1,0-0.1-0.1-0.1-0.1c-0.2-0.4-0.4-0.8-0.7-1.1c0,0-0.1,0-0.1,0c0.1,0.2,0.2,0.4,0.4,0.6c0.1,0.2,0.2,0.4,0.3,0.7
		c0,0.2,0,0.2-0.2,0.3c-0.3,0.1-0.5,0-0.8,0c0,0-0.1,0-0.1,0c0.3,0.2,0.5,0.4,0.7,0.7c0.1,0.1,0.1,0.1,0,0.2
		c-0.4,0.3-0.8,0.4-1.2,0.5c-0.1,0-0.3,0-0.4,0.1c0.6,0,1.3-0.1,1.8-0.4c0,0.2-0.1,0.4-0.3,0.5c-0.3,0.2-0.6,0.2-1,0.2
		c-0.8,0-1.5-0.1-2.2-0.6c-0.2-0.1-0.3-0.3-0.4-0.4c0.5,0.1,0.9-0.1,1.2-0.4c0.3-0.2,0.5-0.5,0.9-0.6c0.2,0,0.3-0.1,0.5,0
		c-0.4-0.2-0.5-0.6-0.5-1c0-0.2-0.1-0.4-0.1-0.6C26.5,40.8,26.4,40.5,26.1,40.3z"/>
	<path class="st0" d="M31.9,47.3c-0.5,0-0.9,0-1.4,0c-0.2,0-0.3,0-0.2-0.3c0.1-0.8,0.5-1.6,1.1-2.1c0.1-0.1,0.1-0.2,0-0.3
		c-0.5-0.4-1.1-0.6-1.7-0.8c-0.2-0.1-0.4-0.1-0.6-0.2c-0.1,0-0.2-0.1-0.1-0.1c0-0.1,0-0.2,0.2-0.2c0.9,0.3,1.9,0.5,2.7,1.1
		c0.1,0,0.1,0,0.2,0c0.8-0.5,1.6-0.8,2.5-1c0,0,0.1,0,0.1,0c0.2-0.1,0.2,0,0.3,0.1c0.1,0.2-0.1,0.1-0.1,0.2c-0.5,0.2-1,0.3-1.5,0.6
		c-0.3,0.1-0.6,0.3-0.8,0.5c-0.1,0.1-0.1,0.1,0,0.2c0.5,0.5,0.8,1,1,1.7c0.1,0.2,0.1,0.4,0.1,0.6c0,0.1,0,0.1-0.1,0.1
		C32.8,47.3,32.3,47.3,31.9,47.3L31.9,47.3z"/>
	<path class="st0" d="M51,23.4c0.1,0.4,0.4,0.5,0.7,0.7c0.2,0.1,0.4,0.2,0.6,0.4c0.1,0.1,0.1,0.2,0.1,0.3c0.2-0.5,0.6-0.6,0.9-0.9
		c0.3-0.2,0.4-0.3,0.5-0.6c0.2,0.3,0.2,0.6,0.2,0.9c0,0.6-0.2,1.3-0.6,1.7c-0.1,0.2-0.3,0.3-0.6,0.2c0.1-0.1,0.2-0.2,0.3-0.3
		c0,0,0.1-0.1,0-0.1c0,0-0.1,0-0.1,0c0,0,0,0,0,0c-0.3,0.3-0.4,0.3-0.6-0.2c0-0.1-0.1-0.3-0.1-0.4c-0.1,0.2-0.1,0.4-0.3,0.6
		c-0.1,0.2-0.2,0.2-0.3,0c-0.1-0.1-0.1-0.1-0.2-0.2c0,0.2,0.1,0.2,0.2,0.3c0,0,0.1,0,0,0.1c0,0.1-0.1,0-0.1,0
		c-0.1,0-0.2-0.1-0.3-0.2C51,25.4,50.7,24.1,51,23.4z M53.2,25.7L53.2,25.7c0.2-0.1,0.3-0.3,0.4-0.4L53.2,25.7z M51.6,25.7
		c0-0.1-0.1-0.2-0.2-0.2C51.5,25.5,51.5,25.7,51.6,25.7L51.6,25.7z"/>
	<path class="st0" d="M12.5,25.1c-0.1,0.1-0.2,0.3-0.3,0.4c-0.1,0.1-0.2,0.2-0.3,0.3c-0.1,0.1-0.2,0.1-0.3,0
		c-0.1-0.2-0.2-0.4-0.3-0.6c-0.1,0.2-0.1,0.4-0.2,0.6C11,26,11,26,10.8,25.9c-0.2-0.1-0.4-0.3-0.5-0.5c0-0.1-0.1-0.1-0.2-0.2
		c0.2,0.3,0.4,0.6,0.7,0.9c-0.2,0.1-0.3,0.1-0.4-0.1c-0.3-0.3-0.5-0.6-0.6-1c-0.2-0.6-0.2-1.1,0.1-1.7c0.1,0.4,0.4,0.6,0.8,0.8
		c0.3,0.2,0.5,0.3,0.6,0.7c0.1-0.4,0.4-0.6,0.8-0.8c0.3-0.1,0.6-0.3,0.6-0.6c0.2,0.3,0.2,0.6,0.2,0.9c0,0.4-0.1,0.9-0.4,1.2
		C12.4,25.8,12.3,26,12,26c0,0-0.1,0-0.1,0c0-0.1,0-0.1,0.1-0.1C12.2,25.7,12.4,25.4,12.5,25.1z"/>
	<path class="st0" d="M11.6,20.7c0,0.5,0.2,1,0.3,1.5c0.1,0.4,0.2,0.8,0.1,1.2c-0.1,0.4-0.2,0.7-0.6,0.8c-0.1,0.1-0.2,0-0.2-0.1
		c0-0.2,0-0.5,0-0.8c-0.1,0.1-0.1,0.1-0.1,0.2c0,0.2,0,0.4,0,0.6c0,0.2-0.1,0.1-0.2,0.1c-0.4-0.2-0.5-0.6-0.5-1
		c0-0.4,0.1-0.8,0.3-1.1C11.1,21.7,11.3,21.2,11.6,20.7C11.6,20.8,11.6,20.8,11.6,20.7z"/>
	<path class="st0" d="M52.6,24.3c0-0.4-0.1-0.7-0.1-1.1c0,0.3,0,0.7-0.1,1c0,0.2-0.1,0.1-0.2,0.1c-0.4-0.2-0.6-0.6-0.6-1.1
		c0-0.3,0-0.5,0.1-0.8c0.2-0.5,0.3-1,0.4-1.6c0.1,0,0.1,0.1,0.1,0.1c0.3,0.5,0.6,1,0.8,1.5c0.2,0.5,0.3,1,0.1,1.4
		C53,24,52.8,24.2,52.6,24.3z"/>
	<path class="st0" d="M11.6,14.2c-0.1,0.4-0.3,0.7-0.4,1.1c-0.5,1.3-0.9,2.7-1.2,4.1c-0.2,1-0.4,2-0.4,3c-0.1,0.8-0.1,1.6-0.1,2.4
		c0,0.1,0,0.1-0.1,0.1c-0.1,0-0.2,0-0.2-0.1c0-0.8,0-1.7,0.1-2.5c0.1-1.4,0.4-2.7,0.8-4c0.4-1.3,0.8-2.7,1.4-3.9
		C11.5,14.2,11.5,14.2,11.6,14.2L11.6,14.2z"/>
	<path class="st0" d="M52.1,14c0.2,0.4,0.3,0.8,0.5,1.1c0.5,1.2,0.9,2.4,1.2,3.6c0.3,1.1,0.5,2.3,0.7,3.5c0.1,0.8,0.2,1.6,0.1,2.5
		c0,0.1,0,0.2-0.2,0.2c-0.2,0-0.2-0.1-0.2-0.2c0-0.9,0-1.9-0.1-2.8c-0.3-2.5-0.9-4.8-1.8-7.1C52.3,14.5,52.2,14.3,52.1,14
		C52.1,14,52.1,14,52.1,14z"/>
	<path class="st0" d="M48.4,15.5c0.2,0.2,0.2,0.4,0.3,0.6c0.6,1.5,1.1,3,1.5,4.5c0.1,0.6,0.2,1.2,0.3,1.7c0.1,0.7,0.2,1.5,0.1,2.2
		c0,0.1,0,0.2-0.1,0.2c-0.1,0-0.2-0.1-0.2-0.2c0-0.8,0-1.6-0.1-2.4c-0.1-1.3-0.4-2.6-0.8-3.8C49.1,17.4,48.7,16.4,48.4,15.5z"/>
	<path class="st0" d="M15.3,15.7c0,0.1,0,0.1,0,0.2c-0.5,1.3-0.9,2.5-1.2,3.8c-0.2,0.7-0.3,1.5-0.4,2.3c-0.1,0.9-0.1,1.7-0.1,2.6
		c0,0.1,0,0.2-0.2,0.2c-0.1,0-0.1-0.1-0.1-0.2c0-0.8,0.1-1.7,0.2-2.5c0.2-1.2,0.5-2.5,0.9-3.7C14.5,17.5,14.8,16.6,15.3,15.7
		C15.2,15.7,15.2,15.7,15.3,15.7z"/>
	<path class="st0" d="M12.3,14c-0.2,0.6-0.5,1.3-0.7,1.9c-0.4,1.3-0.8,2.5-1.1,3.8c-0.1,0.6-0.2,1.3-0.3,1.9c0,0.3-0.1,0.5-0.1,0.8
		c0,0.2,0,0.2-0.2,0.2c-0.2,0-0.1-0.1-0.1-0.2c0.1-0.7,0.2-1.4,0.3-2.1c0.2-0.9,0.4-1.8,0.7-2.7c0.4-1.2,0.8-2.3,1.3-3.4
		C12.2,14.1,12.3,14.1,12.3,14L12.3,14z"/>
	<path class="st0" d="M51.4,14.1c0.2,0.4,0.4,0.8,0.6,1.2c0.2,0.4,0.3,0.8,0.5,1.2c0.4,1.2,0.8,2.4,1.1,3.7c0.1,0.7,0.3,1.3,0.3,2
		c0,0.1,0.1,0.2,0.1,0.3c0,0.1,0,0.2-0.1,0.2c-0.1,0-0.2,0-0.2-0.2c-0.2-2.5-0.8-4.9-1.6-7.2C51.7,14.9,51.6,14.5,51.4,14.1z"/>
	<path class="st0" d="M49,15.2c0.2,0.4,0.3,0.7,0.5,1.1c0.4,1.2,0.9,2.3,1.2,3.5c0.2,0.9,0.4,1.9,0.5,2.9c0,0.1,0,0.2-0.1,0.2
		c-0.1,0-0.2,0-0.2-0.1c-0.2-2.5-0.9-5-1.8-7.3C49,15.4,49,15.3,49,15.2C49,15.2,49,15.2,49,15.2z"/>
	<path class="st0" d="M14.7,15.3c-0.2,0.5-0.4,1-0.6,1.6c-0.5,1.4-0.9,2.8-1.1,4.3c-0.1,0.6-0.1,1.1-0.2,1.7c0,0.2-0.1,0.1-0.2,0.1
		c-0.1,0-0.1,0-0.1-0.1c0.1-1,0.3-2,0.5-2.9c0.3-1.2,0.7-2.5,1.2-3.6C14.4,15.8,14.5,15.5,14.7,15.3z"/>
	<path class="st0" d="M13,14.2c-0.3,0.8-0.6,1.6-0.9,2.4c-0.4,1.2-0.7,2.4-0.9,3.6c-0.1,0.3-0.1,0.5-0.1,0.8c0,0.1,0,0.2-0.2,0.2
		c-0.1,0-0.2-0.1-0.2-0.2c0.2-0.9,0.4-1.7,0.6-2.5c0.4-1.2,0.8-2.5,1.4-3.7C12.8,14.5,12.9,14.3,13,14.2z"/>
	<path class="st0" d="M50.8,14.2c0.4,0.7,0.7,1.5,0.9,2.2c0.5,1.4,1,2.9,1.3,4.4c0,0.1,0.1,0.2-0.1,0.2c-0.2,0.1-0.2,0-0.3-0.1
		c-0.1-0.9-0.3-1.8-0.6-2.7c-0.3-1.2-0.7-2.4-1.2-3.5C50.8,14.5,50.8,14.4,50.8,14.2z"/>
	<path class="st0" d="M14.2,14.9c-0.2,0.6-0.4,1.2-0.6,1.7c-0.4,1-0.7,2.1-0.9,3.2c-0.1,0.5-0.2,0.9-0.2,1.4c0,0.2-0.1,0.1-0.2,0.1
		c-0.1,0-0.1-0.1-0.1-0.2c0.4-1.8,0.9-3.5,1.6-5.1C13.8,15.6,14,15.2,14.2,14.9z"/>
	<path class="st0" d="M49.5,14.9c0.2,0.2,0.2,0.4,0.3,0.6c0.6,1.5,1.2,2.9,1.5,4.5c0.1,0.4,0.2,0.8,0.3,1.2c0,0.1,0,0.2-0.1,0.2
		c-0.1,0-0.2,0-0.2-0.1c-0.2-1.5-0.6-2.9-1-4.3c-0.2-0.6-0.4-1.2-0.7-1.8C49.6,15,49.6,14.9,49.5,14.9L49.5,14.9z"/>
	<path class="st0" d="M50.1,14.4c0.4,0.8,0.7,1.6,1,2.4c0.4,1.1,0.8,2.3,1.1,3.5c0,0.2-0.1,0.2-0.2,0.2c-0.1,0.1-0.1,0-0.2-0.1
		c-0.3-1.4-0.6-2.8-1.1-4.1c-0.2-0.5-0.4-1-0.5-1.5C50.2,14.6,50.2,14.5,50.1,14.4z"/>
	<path class="st0" d="M13.5,14.6c-0.2,0.4-0.3,0.9-0.5,1.3c-0.4,1.1-0.7,2.3-1,3.4c-0.1,0.3-0.1,0.6-0.2,0.9c0,0.1,0,0.2-0.1,0.1
		c-0.1,0-0.2,0-0.2-0.2c0.1-0.6,0.3-1.2,0.5-1.9c0.4-1.2,0.8-2.4,1.4-3.6C13.4,14.8,13.5,14.7,13.5,14.6L13.5,14.6z"/>
	<path class="st0" d="M49.5,14.9C49.6,14.8,49.6,14.8,49.5,14.9c0-0.1,0-0.1,0-0.1C49.5,14.8,49.5,14.8,49.5,14.9
		C49.5,14.8,49.5,14.8,49.5,14.9L49.5,14.9z"/>
	<path class="st1" d="M32,31.7c1,0,2,0,3,0c0.5,0,1,0,1.5,0.1c0.9,0.1,1.8,0.1,2.6,0.2c0.5,0,1.1,0.1,1.6,0.2c0.2,0,0.4,0.1,0.6,0.2
		c0.2,0,0.4,0.1,0.6,0.1c0.5,0,1,0.1,1.5,0.2s1,0.2,1.5,0.3c0.3,0,0.7,0.1,1,0.2c0.2,0.1,0.4,0,0.6,0.1c0.3,0,0.6,0.2,0.9,0.2
		c0.1,0,0.2,0,0.3,0.1c0.3,0.1,0.7,0.1,1,0.2c0.4,0.2,0.9,0.2,1.4,0.3c0.4,0.1,0.8,0.2,1.2,0.3c0.4,0.1,0.8,0.2,1.2,0.3
		c0.5,0.1,1,0.3,1.4,0.4c0.1,0,0.2,0.1,0.4,0.1c0.4,0.1,0.5,0.3,0.3,0.6c-0.1,0.2-0.2,0.5-0.2,0.7c0,0.1-0.1,0.3-0.2,0.4
		c-0.1,0.2-0.1,0.4-0.2,0.6c-0.1,0.2-0.1,0.5-0.2,0.7c-0.2,0.4-0.3,0.9-0.5,1.3c-0.1,0.3-0.3,0.6-0.3,0.9c0,0.2-0.1,0.4-0.1,0.7
		c0,0.2-0.1,0.3-0.3,0.3c-0.1,0-0.3,0-0.4-0.1c-0.3-0.2-0.7-0.2-1-0.4c-0.3-0.1-0.6-0.2-0.9-0.3c-0.2-0.1-0.5-0.1-0.7-0.2
		c-0.2,0-0.4-0.1-0.6-0.2c-0.1-0.1-0.3-0.2-0.4-0.2c-0.3,0-0.6-0.1-0.8-0.2c-0.2,0-0.3-0.1-0.5-0.1c-0.4,0-0.7-0.1-1-0.2
		c-0.4-0.1-0.8-0.2-1.2-0.3c-0.4-0.2-0.9-0.1-1.4-0.2c-0.1,0-0.1,0-0.2,0c-0.3,0-0.6-0.1-0.9-0.2c-0.2-0.1-0.5-0.1-0.7-0.1
		c-0.5,0-1-0.2-1.4-0.2c-0.4,0-0.9-0.1-1.3-0.2c-0.7-0.1-1.3-0.1-2-0.2c0,0-0.1,0-0.1,0c-1.3-0.1-2.6-0.1-3.9-0.1
		c-1.1,0-2.2,0-3.2,0c-0.8,0-1.5,0-2.3,0.1c-0.5,0.1-1.1,0.1-1.6,0.1c-0.6,0-1.1,0.1-1.7,0.2c-0.4,0.1-0.8,0.1-1.2,0.2
		c-0.4,0-0.7,0.1-1.1,0.2c-0.3,0.1-0.6,0.1-0.9,0.1c-0.2,0-0.3,0.1-0.5,0.1c-0.5,0.1-1,0.2-1.4,0.3c-0.3,0.1-0.6,0.1-0.8,0.1
		c-0.3,0-0.6,0.2-1,0.2c-0.4,0.1-0.7,0.2-1.1,0.3c-0.1,0-0.2,0-0.3,0.1c-0.1,0.1-0.3,0.1-0.5,0.2c-0.5,0.1-0.9,0.3-1.4,0.4
		c-0.3,0.1-0.6,0.1-0.8,0.2c-0.4,0.2-0.8,0.2-1.2,0.4c-0.2,0.1-0.3,0.1-0.4-0.2c-0.1-0.4-0.2-0.8-0.4-1.2c-0.1-0.2,0-0.4-0.1-0.6
		c-0.2-0.5-0.3-1-0.5-1.5c-0.1-0.4-0.3-0.8-0.4-1.1c-0.1-0.4-0.2-0.7-0.4-1.1c-0.1-0.1-0.1-0.2-0.1-0.3c0-0.1,0-0.1,0.1-0.2
		c0.1-0.1,0.3-0.2,0.5-0.2c0.3,0,0.5-0.1,0.8-0.2c0.3-0.2,0.7-0.2,1-0.3c0.3-0.1,0.6-0.2,0.9-0.3c0.4-0.1,0.9-0.3,1.3-0.4
		c0.3,0,0.5-0.1,0.8-0.2c0.2-0.1,0.5-0.1,0.7-0.2c0.2,0,0.4-0.1,0.6-0.2c0.2-0.1,0.4-0.1,0.6-0.1c0.5-0.1,1.1-0.2,1.6-0.3
		c0.2,0,0.4-0.1,0.6-0.1c0.2-0.1,0.5-0.1,0.7-0.1c0.4-0.1,0.8-0.1,1.2-0.2c0.3-0.1,0.6,0,0.9-0.1c0.5-0.1,1-0.1,1.5-0.2
		c0.5-0.1,0.9-0.2,1.4-0.2c0.3,0,0.7,0,1-0.1c0,0,0,0,0.1,0c0.9-0.1,1.8,0,2.7-0.1C29.5,31.6,30.8,31.7,32,31.7z M43.4,36.2
		C43.4,36.2,43.4,36.1,43.4,36.2l0-0.2l0.1,0c0,0.1,0,0.1,0.1,0.2c0.1,0.5,0.3,1.1,0.4,1.6c0,0.1,0.1,0.2,0.2,0.2
		c0.3,0,0.6,0.1,0.8,0.2c0.1,0,0.2,0,0.2-0.1c0.1-0.2,0.1-0.5,0.2-0.7c0-0.1,0-0.2-0.1-0.2c-0.1,0-0.1-0.1-0.1-0.2
		c0.1-0.6,0.3-1.2,0.4-1.8c0-0.1,0.1-0.2,0.2-0.1c0.1,0,0.2,0,0.2-0.1c0-0.2,0.1-0.5,0.1-0.7c0-0.1,0-0.2-0.1-0.2
		c-0.3,0-0.6-0.1-0.8-0.2c-0.1,0-0.2,0-0.2,0.2c-0.1,0.6-0.2,1.2-0.3,1.9c-0.1,0-0.1-0.1-0.1-0.1c-0.2-0.6-0.3-1.3-0.5-1.9
		c0-0.1-0.1-0.2-0.2-0.2c-0.3,0-0.6-0.1-0.9-0.1c-0.1,0-0.1,0-0.2,0.1c0,0.2-0.1,0.5-0.2,0.7c0,0.1,0,0.2,0.1,0.2
		c0.1,0,0.2,0.1,0.1,0.2c-0.1,0.6-0.2,1.2-0.3,1.8c0,0.1-0.1,0.2-0.2,0.1c-0.1,0-0.1,0-0.2,0.1c0,0.3,0,0.5-0.1,0.8
		c0,0.1,0,0.1,0.1,0.1c0.4,0.1,0.7,0.1,1.1,0.2c0.1,0,0.1,0,0.1-0.1c0-0.3,0.1-0.5,0.1-0.8c0-0.1,0-0.1,0-0.1
		c-0.2,0-0.1-0.2-0.1-0.3C43.4,36.5,43.4,36.3,43.4,36.2z M16.7,37.7c-0.1,0-0.2,0-0.2-0.1c-0.2-0.4-0.1-0.4,0.3-0.5c0,0,0,0,0.1,0
		c0.2-0.1,0.3,0,0.3,0.1c0,0.1,0.1,0.1,0.1,0.2c0.1,0.1,0.1,0.2,0,0.2c-0.1,0-0.1,0.1-0.1,0.2c0.1,0.2,0.1,0.5,0.2,0.7
		c0,0.1,0.1,0.1,0.2,0.1c0.4-0.1,0.7-0.2,1.1-0.3c0.1,0,0.1-0.1,0.1-0.1c0-0.3-0.1-0.5-0.1-0.8c0-0.1,0-0.1-0.1-0.1
		c-0.2,0.1-0.2,0-0.3-0.2c0-0.1-0.1-0.2-0.2-0.3c-0.1-0.1-0.1-0.3,0-0.4c0.1-0.1,0.1-0.2,0.1-0.3c-0.1-0.4-0.2-0.8-0.3-1.3
		c0-0.1-0.1-0.2-0.1-0.2c-0.1-0.1-0.2-0.2-0.4-0.2c-0.1-0.1-0.2-0.1-0.3,0c-0.8,0.2-1.5,0.4-2.3,0.6c-0.1,0-0.1,0.1-0.1,0.2
		c0.1,0.2,0.1,0.5,0.2,0.7c0,0.1,0.1,0.2,0.2,0.1c0.1-0.1,0.2,0,0.2,0.1c0.2,0.6,0.3,1.2,0.5,1.8c0,0.1,0,0.2-0.1,0.2
		c-0.1,0-0.1,0.1-0.1,0.2c0.1,0.2,0.2,0.4,0.2,0.7c0,0.1,0.1,0.1,0.2,0.1c0.4-0.1,0.7-0.2,1.1-0.3c0.1,0,0.1-0.1,0.1-0.2
		c-0.1-0.2-0.1-0.5-0.2-0.7C16.8,37.7,16.8,37.7,16.7,37.7L16.7,37.7z M35.2,32.7L35.2,32.7c-0.2,0-0.4,0-0.6,0
		c-0.1,0-0.2,0-0.2,0.1c0,0.2,0,0.5-0.1,0.7c0,0.1,0,0.2,0.2,0.2c0.1,0,0.1,0,0.1,0.1c0,0.6,0,1.3-0.1,1.9c0,0.1,0,0.1-0.1,0.1
		s-0.2,0-0.2,0.1c0,0.3,0,0.5,0,0.8c0,0.1,0,0.1,0.1,0.1c0.4,0,0.8,0,1.2,0c0.1,0,0.1,0,0.1-0.1c0-0.3,0-0.5,0.1-0.8
		c0-0.1,0-0.2-0.1-0.1c-0.1,0-0.2-0.1-0.1-0.2c0-0.1,0-0.2,0-0.3c0-0.1,0-0.1,0.1-0.1c0,0,0,0,0,0c0.4-0.1,0.6,0,0.7,0.4
		c0,0.1,0.1,0.2-0.1,0.2c-0.1,0-0.1,0-0.1,0.1c0,0.3,0,0.5,0,0.8c0,0.1,0,0.1,0.1,0.1c0.4,0,0.8,0.1,1.1,0.1c0.1,0,0.1,0,0.1-0.1
		c0-0.3,0.1-0.5,0.1-0.8c0-0.1,0-0.1-0.1-0.1c-0.2,0-0.2-0.1-0.2-0.2c0-0.1-0.1-0.3-0.1-0.4c-0.1-0.1,0-0.2,0.1-0.3s0.2-0.2,0.2-0.3
		c0-0.4,0.1-0.8,0.1-1.2c0-0.3-0.3-0.7-0.7-0.8L35.2,32.7z M22.7,37.5c0-0.2,0-0.4-0.1-0.7c0-0.2,0-0.3-0.2-0.2
		c-0.1,0-0.1-0.1-0.1-0.1c-0.3-0.6-0.6-1.2-0.9-1.8c0,0-0.1-0.1,0-0.1c0.2-0.1,0.1-0.2,0.1-0.3c0-0.2-0.1-0.4-0.1-0.6
		c0-0.1-0.1-0.2-0.2-0.2c-0.6,0.1-1.3,0.2-1.9,0.3c-0.1,0-0.2,0.1-0.1,0.2c0,0.3,0.1,0.5,0.1,0.8c0,0.1,0,0.1,0.1,0.1
		c0.1,0,0.1,0.1,0.1,0.1c-0.1,0.6-0.2,1.3-0.2,1.9c0,0.1,0,0.2-0.1,0.2c-0.1,0-0.1,0.1-0.1,0.2c0.1,0.2,0.1,0.5,0.2,0.7
		c0,0.1,0.1,0.1,0.2,0.1c0.4-0.1,0.8-0.2,1.1-0.2c0.1,0,0.1-0.1,0.1-0.2c0-0.3-0.1-0.5-0.1-0.8c0-0.1,0-0.1-0.1-0.1
		c-0.1,0-0.1,0.1-0.1-0.1c0-0.1,0-0.2,0.1-0.2c0.3-0.1,0.6-0.1,0.9-0.2c0.1,0,0.1,0.1,0.2,0.2c0,0.1,0,0.1-0.1,0.1
		c-0.1,0-0.1,0.1-0.1,0.1c0,0.3,0.1,0.5,0.1,0.8c0,0.1,0,0.1,0.1,0.1c0.4-0.1,0.8-0.1,1.2-0.2C22.7,37.6,22.7,37.6,22.7,37.5z
		 M27.6,37.1L27.6,37.1c0.3,0,0.6,0,0.9-0.1c0.1,0,0.2,0,0.2-0.2c0-0.2,0-0.5,0-0.7c0-0.1,0-0.2-0.1-0.1c-0.1,0-0.2,0-0.2-0.1
		c-0.2-0.6-0.5-1.2-0.7-1.7c0-0.1-0.1-0.2,0.1-0.3c0.1,0,0-0.1,0-0.1c0-0.2-0.1-0.5-0.1-0.7c0-0.1-0.1-0.1-0.2-0.1
		c-0.7,0-1.3,0.1-2,0.2c-0.1,0-0.1,0-0.1,0.1c0,0.3,0,0.5,0,0.8c0,0,0,0.1,0.1,0.1c0.2,0,0.1,0.1,0.1,0.2c-0.1,0.6-0.3,1.2-0.4,1.9
		c0,0.1-0.1,0.2-0.2,0.2c-0.1,0-0.1,0.1-0.1,0.2c0,0.2,0.1,0.5,0.1,0.7c0,0.1,0.1,0.2,0.2,0.2c0.4,0,0.8-0.1,1.1-0.1
		c0.1,0,0.2-0.1,0.1-0.2c0-0.2,0-0.5-0.1-0.7c0-0.1,0-0.2-0.1-0.2c-0.1,0-0.2,0-0.1-0.1c0-0.1,0-0.2,0.2-0.2c0.3,0,0.5,0,0.8-0.1
		c0.1,0,0.2,0.1,0.2,0.2c0,0.1,0,0.1-0.1,0.1c-0.1,0-0.1,0.1-0.1,0.2c0,0.2,0,0.5,0.1,0.7c0,0.1,0,0.2,0.2,0.1
		C27.4,37.1,27.5,37.1,27.6,37.1z M37.9,36.6L37.9,36.6c0,0.1,0,0.3,0,0.4c0,0.1,0,0.1,0.1,0.2c0.4,0,0.8,0.1,1.2,0.1
		c0.1,0,0.2,0,0.2-0.1c0-0.3,0.1-0.5,0.1-0.8c0-0.1,0-0.1-0.1-0.1c-0.1,0-0.1,0-0.1-0.1c0-0.1,0-0.2,0.2-0.2c0.3,0,0.6,0.1,0.9,0.1
		c0.1,0,0.1,0.1,0.1,0.2c0,0.1-0.1,0.1-0.1,0.1c-0.1,0-0.1,0.1-0.1,0.1c0,0.2-0.1,0.5-0.1,0.7c0,0.1,0,0.1,0.1,0.2
		c0.4,0,0.8,0.1,1.1,0.2c0.1,0,0.2,0,0.2-0.1c0-0.2,0.1-0.5,0.1-0.7c0-0.1,0-0.2-0.1-0.2c-0.1,0-0.1,0-0.1-0.1
		c-0.1-0.7-0.2-1.3-0.4-2c0,0,0-0.1,0-0.1c0.2,0,0.2-0.1,0.2-0.2c0-0.2,0-0.4,0.1-0.7c0-0.1,0-0.2-0.1-0.2c-0.7-0.1-1.3-0.2-2-0.2
		c-0.1,0-0.2,0-0.2,0.1c0,0.3-0.1,0.5-0.1,0.8c0,0.1,0,0.1,0.1,0.1c0.1,0,0.1,0.1,0.1,0.2c-0.3,0.6-0.5,1.2-0.8,1.8
		c0,0.1,0,0.1-0.1,0.1c-0.3-0.1-0.2,0.1-0.2,0.3C37.9,36.5,37.9,36.6,37.9,36.6L37.9,36.6z M45.9,37.3c-0.1,0-0.2,0-0.2,0.1
		c0,0.2-0.1,0.5-0.1,0.7c0,0.1,0,0.2,0.2,0.2c0.6,0.1,1.3,0.3,1.9,0.4c0.2,0.1,0.4,0.1,0.6-0.1c0.1-0.1,0.3-0.2,0.4-0.3
		c0.2-0.8,0.4-1.7,0.7-2.5c0.1-0.4,0-0.7-0.2-1c0,0-0.1-0.1-0.1-0.1c-0.8-0.2-1.5-0.4-2.3-0.5c-0.1,0-0.2,0-0.2,0.1
		c-0.1,0.2-0.1,0.5-0.2,0.7c0,0.1,0,0.2,0.1,0.2c0.2,0,0.2,0.1,0.1,0.2c-0.1,0.6-0.3,1.2-0.4,1.8C46.1,37.3,46.1,37.4,45.9,37.3
		L45.9,37.3z M51.7,36.7c-0.1,0.1,0,0.2,0.1,0.2c0.2,0.1,0.4,0.1,0.6,0.2c0.1,0.1,0.2,0,0.2-0.1c0-0.2,0.1-0.4,0.2-0.6
		c0.1-0.5,0.1-0.5-0.3-0.6c-0.8-0.2-1.5-0.4-2.3-0.7c-0.1,0-0.2-0.1-0.3,0.1c-0.1,0.2-0.2,0.5-0.2,0.7c0,0.1,0,0.2,0.1,0.2
		c0.2,0,0.2,0.1,0.1,0.2c-0.2,0.6-0.3,1.2-0.5,1.7c0,0.1-0.1,0.2-0.2,0.1c-0.1,0-0.2,0-0.2,0.1c0,0.2-0.1,0.5-0.1,0.7
		c0,0.1,0,0.2,0.1,0.2c0.7,0.2,1.5,0.4,2.2,0.6c0.4,0.1,0.3,0.2,0.5-0.2c0-0.1,0.1-0.1,0.1-0.2c0.1-0.2,0.3-0.5,0.2-0.6
		c-0.1-0.2-0.4-0.2-0.7-0.2c0,0,0,0,0,0c-0.1,0-0.1,0-0.1,0.1c0,0.1-0.1,0.1-0.2,0.1c-0.1,0-0.2-0.1-0.3-0.1
		c-0.4-0.1-0.4-0.1-0.3-0.6c0-0.1,0.1-0.1,0.2-0.1c0.2,0.1,0.4,0.1,0.6,0.2c0.1,0,0.2,0,0.2-0.1c0.1-0.2,0.1-0.3,0.2-0.5
		c0.1-0.2,0-0.2-0.1-0.3c-0.2-0.1-0.4-0.1-0.6-0.2c0,0-0.1,0-0.1-0.1c0-0.2,0.1-0.3,0.1-0.5c0-0.1,0.1,0,0.1,0
		c0.2,0.1,0.4,0.1,0.6,0.2C51.7,36.6,51.8,36.6,51.7,36.7L51.7,36.7z M31.2,34.8L31.2,34.8c0,0.4,0.1,0.8,0,1.2
		c0,0.4,0.1,0.6,0.3,0.8c0.1,0.1,0.2,0.1,0.3,0.1c0.4,0,0.9,0,1.3,0c0.3,0,0.7-0.4,0.7-0.7c0-0.6,0-1.1,0-1.7c0-0.1,0-0.2-0.1-0.2
		c-0.4,0-0.8,0-1.2,0c-0.1,0-0.2,0-0.2,0.2c0,0.2,0,0.4,0,0.6c0,0.1,0.1,0.1,0.2,0.1c0.3,0,0.3,0,0.3,0.4c0,0,0,0.1,0,0.1
		c0,0.1,0,0.1-0.1,0.1c-0.2,0-0.4,0-0.6,0c-0.1,0-0.1,0-0.1-0.1c0-0.6,0-1.3,0-1.9c0-0.1,0-0.2,0.1-0.1c0.2,0,0.4,0,0.5,0
		c0.1,0,0.2,0,0.2,0.2c0,0.1,0,0.1,0.1,0.1c0.2,0,0.5,0,0.7,0c0.1,0,0.1,0,0.1-0.1c0-0.4,0-0.8-0.4-1.1c-0.1-0.1-0.2-0.1-0.3-0.1
		c-0.5,0-1,0-1.5,0c-0.3,0-0.7,0.4-0.7,0.7C31.2,33.8,31.2,34.3,31.2,34.8z M14.7,37.1c-0.1-0.3-0.2-0.7-0.3-1
		c-0.1-0.4-0.3-0.6-0.6-0.8c-0.1,0-0.2-0.1-0.3,0c-0.8,0.2-1.5,0.4-2.3,0.7c-0.1,0-0.1,0.1-0.1,0.2c0.1,0.2,0.1,0.4,0.2,0.7
		c0,0.1,0.1,0.2,0.2,0.1c0.1,0,0.1,0,0.2,0.1c0.2,0.6,0.4,1.2,0.6,1.8c0,0.1,0,0.2-0.1,0.2c-0.1,0-0.1,0.1-0.1,0.2
		c0.1,0.2,0.2,0.5,0.3,0.7c0,0,0,0.1,0.1,0.1c0.4-0.1,0.8-0.2,1.1-0.4c0.1,0,0.1-0.1,0.1-0.2c-0.1-0.2-0.1-0.5-0.2-0.7
		c0-0.1-0.1-0.2-0.2-0.1c-0.1,0.1-0.1,0-0.2-0.1c0-0.1,0-0.1-0.1-0.2c-0.1-0.1,0-0.2,0.1-0.2c0.3-0.1,0.6-0.2,0.8-0.2
		c0.2,0,0.3-0.1,0.4-0.3C14.5,37.4,14.7,37.3,14.7,37.1z M24.6,37.1c0-0.2,0-0.5,0-0.7c0-0.1,0-0.2-0.1-0.1c-0.1,0-0.2,0-0.2-0.1
		c-0.1-0.6-0.1-1.2-0.2-1.8c0-0.1,0-0.2,0.1-0.2c0.1,0,0.1-0.1,0.1-0.2c0-0.2-0.1-0.5-0.1-0.7c0-0.1-0.1-0.2-0.2-0.2
		c-0.4,0.1-0.7,0.1-1.1,0.1c-0.1,0-0.2,0.1-0.1,0.2c0,0.2,0,0.5,0.1,0.7c0,0.1,0.1,0.2,0.2,0.1c0.1,0,0.2,0,0.2,0.2
		c0.1,0.6,0.2,1.2,0.2,1.8c0,0.1,0,0.2-0.1,0.2c-0.1,0-0.1,0.1-0.1,0.2c0,0.2,0.1,0.5,0.1,0.7c0,0.1,0.1,0.2,0.2,0.1
		c0.3,0,0.7-0.1,1-0.1C24.5,37.4,24.6,37.3,24.6,37.1L24.6,37.1z"/>
	<path class="st1" d="M56.7,42.9c0,0.1-0.1,0.2-0.1,0.3c-0.1,0.1-0.1,0.3-0.3,0.2c0,0-0.1,0-0.1,0.1c-0.1,0.1-0.2,0.2-0.3,0.3
		c-0.1,0-0.1,0-0.1,0.1c-0.1,0.2-0.3,0.4-0.6,0.5c-0.1,0.1-0.2,0.2-0.3,0.3c-0.2,0.3-0.5,0.5-0.8,0.7c-0.2,0.2-0.3,0.4-0.2,0.7
		c0.1,0.3,0,0.7,0.1,1c0.1,0.5,0.1,1,0.1,1.4c0,0.3,0,0.3-0.3,0.2c-0.5-0.2-0.8-0.5-1.2-0.7c-0.2-0.1-0.3-0.3-0.5-0.3
		c-0.2-0.1-0.4-0.3-0.6-0.3c-0.3-0.1-0.6-0.3-0.8-0.5c-0.3-0.2-0.7-0.4-1-0.6c-0.1,0-0.1-0.1-0.1-0.1c0-0.2-0.2-0.3-0.4-0.3
		c-0.4-0.2-0.7-0.4-1.1-0.6c-0.3-0.2-0.6-0.2-0.9-0.5c0,0,0,0-0.1,0c-0.3,0-0.6-0.2-0.9-0.3c-0.5-0.2-1-0.5-1.6-0.7
		c-0.1,0-0.1,0-0.1-0.1c0-0.1,0.1-0.1,0.2-0.1c0.2,0,0.4,0,0.6-0.1c0.4-0.1,0.7-0.1,1.1-0.2c0,0,0.1,0,0.1,0c0.4,0,0.7-0.1,1.1-0.2
		c0.2,0,0.5-0.1,0.7-0.1c0.3,0,0.6-0.1,1-0.2c0.1,0,0.1,0,0.2,0c0.4,0,0.8-0.1,1.2-0.1c0.3,0,0.6-0.1,0.9-0.1c0.5,0,1-0.1,1.6-0.1
		c0.2,0,0.2-0.2,0.3-0.4c0.1-0.3,0.2-0.6,0.3-0.9c0-0.1,0.1-0.1,0.2,0c0.4,0.2,0.7,0.4,1.1,0.7c0.4,0.2,0.8,0.4,1.2,0.7
		c0.2,0.1,0.4,0.3,0.6,0.4C56.6,42.8,56.7,42.8,56.7,42.9z"/>
	<path class="st1" d="M10,48.4c0-0.6,0.1-1.1,0.1-1.7c0-0.3,0-0.6,0.1-0.9c0-0.3,0-0.5-0.3-0.6c-0.1-0.1-0.2-0.2-0.3-0.3
		c-0.2-0.1-0.2-0.3-0.5-0.4C9,44.5,9,44.4,9,44.4c-0.4-0.4-0.8-0.8-1.3-1.1c0,0-0.1-0.1-0.1-0.1c-0.3-0.2-0.3-0.3,0-0.5
		c0.4-0.3,0.8-0.5,1.2-0.8c0.2-0.1,0.3,0,0.5-0.2c0.2-0.1,0.4-0.3,0.6-0.5c0.1-0.1,0.3-0.2,0.5-0.3c0.1,0,0.2,0,0.3,0.2
		c0.1,0.3,0.2,0.6,0.3,1c0,0.1,0.1,0.1,0.2,0.1c0.5,0,0.9,0.1,1.4,0.1c0.3,0,0.7,0,1,0.1c0.3,0.1,0.7,0,1,0.1
		c0.5,0.1,0.9,0.1,1.4,0.2c0.1,0,0.2,0,0.3,0c0.3,0,0.5,0,0.8,0.2c0,0,0.1,0,0.1,0c0.5-0.1,1,0.1,1.5,0.2c0.1,0,0.2,0,0.3,0
		c0.2,0,0.4,0.1,0.5,0.2c0.1,0,0.1,0.1,0,0.1c-0.2,0.2-0.4,0.2-0.7,0.3c-0.4,0.2-0.8,0.4-1.2,0.5c-0.4,0.2-0.9,0.3-1.2,0.6
		c-0.3,0.2-0.7,0.3-1,0.5c-0.2,0.1-0.4,0.2-0.7,0.4c-0.5,0.3-1.1,0.6-1.6,0.9c-0.2,0.2-0.5,0.3-0.7,0.4c-0.4,0.1-0.8,0.5-1.2,0.6
		c-0.1,0-0.2,0.1-0.2,0.2c-0.2,0.3-0.6,0.4-0.8,0.6C10,48.7,9.9,48.6,10,48.4z"/>
	<path class="st1" d="M19.1,18.5c1.2,0,2.4,0,3.5,0c0.2,0,0.2,0,0.2,0.2c0,1,0,2,0,3c0,0.2-0.1,0.3-0.3,0.3c-0.7,0-1.4,0-2.1,0
		c-0.2,0-0.2-0.1-0.2-0.2c0-0.4,0-0.4-0.5-0.4c-0.2,0-0.4,0-0.6,0c-0.2,0-0.2,0.1-0.2,0.2c0,0.2,0,0.5,0,0.7c0,0.1,0,0.2,0.2,0.2
		c0.6,0,1.2,0,1.8,0c0.3,0,0.3,0,0.3,0.3c0,0.7,0,1.4,0,2.2c0,0.3,0,0.3-0.3,0.3c-0.6,0-1.1,0-1.7,0c-0.2,0-0.2,0.1-0.2,0.2
		c0,0.2,0,0.4,0,0.6c0,0.1-0.2,0.2,0,0.3c0.1,0.1,0.3,0.1,0.4,0.1c0.2,0,0.5,0,0.7,0c0.1,0,0.2,0,0.2-0.2c0-0.1,0-0.3,0-0.4
		c0-0.1,0-0.2,0.2-0.2c0.7,0,1.5,0,2.2,0c0.2,0,0.2,0.1,0.2,0.2c0,1,0,2,0,2.9c0,0.1-0.1,0.2,0,0.4c0,0-0.1,0.1-0.1,0.1
		c-0.1,0-0.1,0-0.2,0l-6.9,0c-0.2,0-0.3-0.1-0.3-0.3c0-0.7,0-1.4,0-2.1c0-0.1,0.1-0.3,0-0.4c0,0,0.1-0.1,0.1-0.1c0,0,0.1,0,0.1,0
		c0.4,0,0.4,0,0.4-0.5c0-1.5,0-3,0-4.5c0-0.2-0.1-0.2-0.2-0.2c-0.1,0-0.1,0-0.2,0c-0.2,0-0.2-0.1-0.2-0.2c0-0.8,0-1.6,0-2.5
		c0-0.2,0.1-0.2,0.2-0.2L19.1,18.5L19.1,18.5z M16.9,24v3.1c0,0.5,0,0.5-0.5,0.5c0,0,0,0,0,0c-0.1,0-0.2,0.1-0.2,0.2
		c0,0.2,0,0.4,0,0.5c0,0.2,0,0.2,0.2,0.2c1.7,0,3.4,0,5.2,0c0.1,0,0.2,0,0.3,0c0.1,0,0.1,0,0.1-0.1c0-0.5,0-1,0-1.5
		c0-0.1,0-0.1-0.1-0.1c-0.3,0-0.5-0.1-0.7,0c-0.1,0.1,0,0.3,0,0.5c0,0,0,0,0,0.1c0,0.1,0,0.2-0.2,0.2c-0.9,0-1.8,0-2.7,0
		c-0.1,0-0.2,0-0.2-0.2c0-1,0-1.9,0-2.9c0-0.1,0-0.2,0.2-0.2c0.5,0,1,0,1.5,0c0.2,0,0.5,0.1,0.6,0c0.1-0.1,0-0.4,0-0.6
		c0-0.2,0-0.2-0.2-0.2c-0.7,0-1.3,0-2,0c-0.1,0-0.2,0-0.2-0.2c0-0.9,0-1.8,0-2.7c0-0.1,0-0.2,0.2-0.2c0.8,0,1.6,0,2.4,0
		c0.4,0,0.5,0,0.4,0.4c0,0.1,0,0.2,0.2,0.2c0.2,0,0.3,0,0.5,0c0.2,0,0.2-0.1,0.2-0.2c0-0.4,0-0.8,0-1.2c0-0.2,0-0.2-0.2-0.2
		c-1.7,0-3.3,0-5,0c-0.5,0-0.5,0-0.5,0.5c0,0.5,0,0.5,0.5,0.5c0.2,0,0.2,0,0.2,0.2C16.9,21.7,16.9,22.9,16.9,24z"/>
	<path class="st1" d="M27.8,18.5h3.8c0.3,0,0.4,0,0.4,0.4c0,1.1,0,2.3,0,3.4c0,0.2-0.1,0.3-0.3,0.3c-0.6,0-1.1,0-1.7,0
		c-0.3,0-0.3-0.2-0.3-0.3c0-0.2-0.1-0.4,0-0.6c0-0.1,0-0.2-0.1-0.2c-0.1,0-0.2,0-0.3,0c-0.1,0-0.1,0-0.1,0.2c0,0.4,0.1,0.8,0,1.3
		c0,0.1,0.1,0.2,0.1,0.3c-0.1,0.8,0,1.5,0,2.3c0,0.3,0,0.7,0,1c0,0.1,0.1,0.1,0.1,0.1c0.1,0,0.2,0,0.3,0c0.2,0,0.2,0.1,0.2,0.2
		c0,0.8,0,1.6,0,2.4c0,0.2-0.1,0.2-0.2,0.2c-1.3,0-2.6,0-3.8,0c-0.2,0-0.2-0.1-0.2-0.2c0-0.8,0-1.6,0-2.4c0-0.2,0.1-0.2,0.2-0.2
		c0.1,0,0.2,0,0.4,0c0.1,0,0.2-0.1,0.2-0.2c-0.1-0.3,0-0.5,0-0.8c0-0.8,0-1.6,0-2.4c0-0.5,0-1.1,0-1.6c0-0.2-0.1-0.3-0.3-0.3
		c-0.2,0-0.2,0.1-0.2,0.3c0,0.2,0,0.4,0,0.5c0,0.2-0.1,0.3-0.3,0.3c-0.6,0-1.2,0-1.8,0c-0.1,0-0.2-0.1-0.2-0.2c0-1.2,0-2.4,0-3.6
		c0-0.2,0.1-0.3,0.3-0.3C25.2,18.5,26.5,18.5,27.8,18.5z M28.4,24L28.4,24c0-0.1,0-0.3,0-0.4c0-1,0-2,0-3c0-0.1,0-0.2,0.1-0.2
		c0.6,0,1.2,0,1.8,0c0.1,0,0.1,0,0.1,0.1c0,0.2,0,0.3,0,0.5c0,0.6,0,0.6,0.6,0.5c0.2,0,0.2-0.1,0.2-0.2c0-0.6,0-1.1,0-1.7
		c0-0.2,0-0.3-0.2-0.3c-2.1,0-4.2,0-6.3,0c-0.2,0-0.2,0.1-0.2,0.2c0,0.4,0,0.9,0,1.4c0,0.6,0,0.6,0.6,0.6c0.1,0,0.2-0.1,0.2-0.2
		c0-0.3,0-0.5,0-0.8c0-0.2,0-0.2,0.2-0.2c0.5,0,1,0,1.5,0c0.3,0,0.3,0,0.3,0.3c0,2.1,0,4.3,0,6.4c0,0.4,0,0.4-0.5,0.5c0,0,0,0-0.1,0
		c-0.1,0-0.2,0-0.2,0.2c0,0.2,0,0.4,0,0.6c0,0.2,0.1,0.2,0.2,0.2c0.6,0,1.3,0,1.9,0c0.5,0,0.5,0,0.5-0.5c0-0.5,0-0.5-0.5-0.5
		c-0.2,0-0.2-0.1-0.2-0.2C28.4,26.2,28.4,25.1,28.4,24L28.4,24z"/>
	<path class="st1" d="M36.9,29.5h-3.5c-0.3,0-0.3,0-0.3-0.3c0-0.8,0-1.5,0-2.3c0-0.2,0.1-0.3,0.3-0.3c0.4,0,0.4,0,0.4-0.4
		c0-1.5,0-3.1,0-4.6c0-0.2-0.1-0.3-0.3-0.3c0,0-0.1,0-0.1,0c-0.2,0.1-0.3,0-0.3-0.2c0-0.8,0-1.6,0-2.4c0-0.2,0.1-0.2,0.2-0.2
		c0.3,0,0.6,0,1,0c2,0,4.1,0,6.1,0c0.2,0,0.3,0,0.3,0.3c0,1,0,2.1,0,3.1c0,0.2-0.1,0.2-0.2,0.2c-0.7,0-1.4,0-2.1,0
		C38.1,22,38,22,38,21.8c0-0.1,0-0.1,0-0.2c0-0.1-0.1-0.2-0.2-0.2c-0.3,0-0.6,0-0.9,0c-0.1,0-0.2,0-0.2,0.2c0,0.2,0,0.5,0,0.7
		c0,0.2,0.1,0.3,0.3,0.3c0.6,0,1.2,0,1.8,0c0.2,0,0.2,0,0.3,0.3c0,0.6,0,1.3,0,1.9c0,0.2,0,0.3,0,0.5c0,0.1-0.1,0.2-0.3,0.2h-1.8
		c-0.3,0-0.3,0-0.3,0.3s0,0.5,0,0.8c0,0.1,0,0.2,0.2,0.2c0.3,0,0.6,0,0.9,0c0.1,0,0.2,0,0.2-0.2s0-0.2,0-0.4c0-0.2,0.1-0.2,0.2-0.2
		c0.7,0,1.4,0,2.2,0c0.2,0,0.2,0,0.2,0.2c0,1.1,0,2.1,0,3.2c0,0.2-0.1,0.2-0.2,0.2C39.3,29.5,38.1,29.5,36.9,29.5L36.9,29.5z
		 M34.7,24L34.7,24l0,1.8c0,0.5,0,1,0,1.6c0,0.3,0,0.3-0.3,0.3c-0.1,0-0.2,0-0.3,0c-0.1,0-0.1,0-0.1,0.1c0,0.2,0,0.4,0,0.7
		c0,0.1,0.1,0.1,0.2,0.1c1.8,0,3.6,0,5.4,0c0.1,0,0.2,0,0.2-0.2c0-0.5,0-1,0-1.4c0-0.1,0-0.2-0.1-0.2c-0.2,0-0.4,0-0.5,0
		c-0.1,0-0.2,0-0.2,0.1c0,0.2,0,0.3,0,0.5c0,0.1,0,0.2-0.2,0.2c-0.9,0-1.8,0-2.7,0c-0.2,0-0.2-0.1-0.2-0.2c0-1,0-1.9,0-2.8
		c0-0.2,0-0.2,0.2-0.2c0.7,0,1.3,0,2,0c0.1,0,0.2,0,0.2-0.2c0-0.1,0-0.3,0-0.4c0-0.2-0.1-0.2-0.2-0.2c-0.6,0-1.3,0-1.9,0
		c-0.1,0-0.2,0-0.2-0.2c0-0.9,0-1.8,0-2.7c0-0.1,0-0.2,0.1-0.2c0.9,0,1.9,0,2.8,0c0.1,0,0.1,0,0.1,0.1c0,0.2-0.1,0.4,0,0.5
		c0.1,0.1,0.3,0,0.5,0c0,0,0.1,0,0.1,0c0.1,0,0.2,0,0.2-0.2c0-0.4,0-0.8,0-1.3c0-0.1,0-0.2-0.2-0.2c-1.7,0-3.3,0-5,0
		c-0.6,0-0.6,0-0.6,0.6c0,0.4,0,0.4,0.4,0.4c0.2,0,0.3,0.1,0.3,0.3C34.7,21.8,34.7,22.9,34.7,24z"/>
	<path class="st1" d="M41.7,23.9c0-1.1,0-2.2,0-3.3c0-0.2,0.1-0.4,0.3-0.6c0.2-0.1,0.3-0.3,0.4-0.5c0,0,0-0.1,0.1-0.1
		c0.4-0.2,0.5-0.5,0.8-0.8c0.2-0.1,0.3-0.2,0.5-0.2c1,0,1.9,0,2.9,0c0.3,0,0.5,0.1,0.7,0.3c0.1,0.2,0.3,0.3,0.4,0.5
		c0.1,0.2,0.2,0.3,0.3,0.5c0.1,0.2,0.2,0.3,0.4,0.5c0.1,0.1,0.2,0.2,0.2,0.3c0,0.5,0,1,0,1.5c0,0.2,0,0.3,0,0.5
		c0,0.2-0.1,0.3-0.3,0.3c-0.7,0-1.4,0-2.2,0c-0.2,0-0.3,0-0.3-0.3c0-0.3,0-0.6,0-1c0-0.1,0-0.2-0.2-0.2c-0.3,0-0.6,0-0.9,0
		c-0.1,0-0.2,0-0.2,0.2c0,1.6,0,3.2,0,4.8c0,0.1,0,0.2,0.2,0.2c0.3,0,0.6,0,0.9,0c0.1,0,0.2,0,0.2-0.2c0-0.4,0-0.7,0-1.1
		c0-0.2,0-0.3,0.3-0.3c0.7,0,1.4,0,2.2,0c0.2,0,0.3,0.1,0.3,0.3c0,0.6,0,1.1,0,1.7c0,0.3,0,0.5-0.1,0.8c0,0.1-0.1,0.2-0.2,0.2
		c-0.3,0.2-0.5,0.6-0.7,0.9c-0.1,0.1-0.2,0.2-0.3,0.3c-0.1,0.1-0.2,0.2-0.3,0.3c-0.2,0.2-0.4,0.2-0.6,0.2c-0.9,0-1.9,0-2.8,0
		c-0.2,0-0.3,0-0.4-0.2c-0.4-0.4-0.8-0.8-1.1-1.3c-0.1-0.1-0.2-0.2-0.3-0.3c-0.1-0.2-0.2-0.3-0.2-0.5C41.7,26.1,41.7,25,41.7,23.9
		L41.7,23.9z M42.7,23.9L42.7,23.9c0,1,0,2,0,2.9c0,0.1,0,0.2,0.1,0.3c0.3,0.4,0.7,0.8,1,1.2c0.1,0.1,0.2,0.1,0.3,0.1
		c0.8,0,1.5,0,2.3,0c0.1,0,0.2,0,0.2-0.1c0.4-0.4,0.8-0.8,1.1-1.2c0.1-0.1,0.1-0.1,0.1-0.2c0-0.3,0-0.6,0-0.9c0-0.1,0-0.2-0.2-0.2
		c-0.2,0-0.4,0-0.6,0c-0.1,0-0.2,0-0.2,0.2c0,0.2,0,0.5,0,0.7c0,0.2-0.5,0.8-0.6,0.8c0,0-0.1,0-0.1,0c-0.5,0-1.1,0-1.6,0
		c-0.1,0-0.2,0-0.2-0.1c-0.1-0.1-0.2-0.3-0.4-0.4c-0.1-0.1-0.2-0.3-0.2-0.4c0-1.7,0-3.5,0-5.2c0-0.3,0.1-0.6,0.3-0.8
		c0.1-0.1,0.2-0.3,0.4-0.3c0.6,0,1.1,0,1.7,0c0.1,0,0.1,0,0.2,0.1c0.3,0.3,0.6,0.6,0.5,1c0,0.1,0,0.1,0,0.2c0,0.1,0,0.2,0.1,0.1
		c0.2,0,0.4,0,0.7,0c0.1,0,0.2-0.1,0.2-0.2c0-0.2,0-0.5,0-0.7c0-0.1,0-0.2-0.1-0.3c-0.3-0.4-0.6-0.7-0.9-1.1
		c-0.1-0.1-0.2-0.2-0.3-0.1c-0.8,0-1.6,0-2.4,0c-0.1,0-0.2,0-0.3,0.1c-0.3,0.4-0.7,0.7-1,1.1c-0.1,0.1-0.1,0.2-0.1,0.3
		C42.7,22,42.7,23,42.7,23.9L42.7,23.9z"/>
	<path class="st2" d="M43.4,36C43.4,36.1,43.4,36.1,43.4,36c0,0.1,0,0.1,0,0.2c0,0.1,0,0.2-0.1,0.4c0,0.1-0.1,0.2,0.1,0.3
		c0.1,0,0.1,0.1,0,0.1c0,0.3-0.1,0.5-0.1,0.8c0,0.1-0.1,0.1-0.1,0.1c-0.4-0.1-0.7-0.1-1.1-0.2c-0.1,0-0.1,0-0.1-0.1
		c0-0.3,0.1-0.5,0.1-0.8c0-0.1,0.1-0.1,0.2-0.1c0.1,0,0.2,0,0.2-0.1c0.1-0.6,0.2-1.2,0.3-1.8c0-0.1,0-0.2-0.1-0.2
		c-0.1,0-0.1-0.1-0.1-0.2c0.1-0.2,0.1-0.5,0.2-0.7c0-0.1,0.1-0.1,0.2-0.1c0.3,0,0.6,0.1,0.9,0.1c0.1,0,0.1,0.1,0.2,0.2
		c0.2,0.6,0.3,1.3,0.5,1.9c0,0,0,0.1,0.1,0.1c0.1-0.6,0.2-1.2,0.3-1.9c0-0.2,0.1-0.2,0.2-0.2c0.3,0.1,0.5,0.1,0.8,0.2
		c0.1,0,0.2,0.1,0.1,0.2c0,0.2-0.1,0.5-0.1,0.7c0,0.1-0.1,0.2-0.2,0.1c-0.1,0-0.2,0-0.2,0.1c-0.1,0.6-0.2,1.2-0.4,1.8
		c0,0.1,0,0.2,0.1,0.2c0.1,0,0.1,0.1,0.1,0.2c-0.1,0.2-0.1,0.5-0.2,0.7c0,0.1-0.1,0.1-0.2,0.1c-0.3-0.1-0.5-0.1-0.8-0.2
		C44.1,38,44,38,44,37.9c-0.1-0.5-0.2-1.1-0.4-1.6c0-0.1,0-0.1-0.1-0.2c0-0.1,0-0.2-0.1-0.3C43.4,35.8,43.4,35.9,43.4,36z"/>
	<path class="st2" d="M16.7,37.7c0.1,0,0.1,0,0.1,0.1c0.1,0.2,0.1,0.5,0.2,0.7c0,0.1,0,0.2-0.1,0.2c-0.4,0.1-0.7,0.2-1.1,0.3
		c-0.1,0-0.2,0-0.2-0.1c-0.1-0.2-0.1-0.4-0.2-0.7c0-0.1-0.1-0.2,0.1-0.2c0.1,0,0.1-0.1,0.1-0.2c-0.2-0.6-0.3-1.2-0.5-1.8
		c0-0.1-0.1-0.2-0.2-0.1c-0.1,0.1-0.2,0-0.2-0.1c0-0.2-0.1-0.5-0.2-0.7c0-0.1,0-0.2,0.1-0.2c0.8-0.2,1.5-0.4,2.3-0.6
		c0.1,0,0.2,0,0.3,0c0.1,0.1,0.2,0.2,0.4,0.2c0.1,0.1,0.1,0.1,0.1,0.2c0.1,0.4,0.2,0.8,0.3,1.3c0,0.1,0,0.2-0.1,0.3
		c-0.1,0.1-0.1,0.3,0,0.4c0.1,0.1,0.1,0.2,0.2,0.3c0.1,0.1,0.1,0.2,0.3,0.2c0.1,0,0.1,0,0.1,0.1c0,0.3,0.1,0.5,0.1,0.8
		c0,0.1,0,0.1-0.1,0.1c-0.4,0.1-0.7,0.2-1.1,0.3c-0.1,0-0.2,0-0.2-0.1c-0.1-0.2-0.1-0.5-0.2-0.7c0-0.1,0-0.1,0.1-0.2
		c0.1,0,0.1-0.1,0-0.2c0-0.1-0.1-0.1-0.1-0.2c-0.1-0.1-0.2-0.2-0.3-0.1c0,0,0,0-0.1,0c-0.4,0.1-0.4,0.2-0.3,0.5
		C16.5,37.7,16.6,37.7,16.7,37.7z M16.2,36.3c0.2-0.1,0.5-0.1,0.7-0.2c0.1,0,0.1-0.1,0.1-0.2c-0.1-0.5-0.1-0.5-0.6-0.4
		C16,35.6,16,35.6,16.1,36C16.1,36.1,16.1,36.2,16.2,36.3C16.2,36.3,16.2,36.3,16.2,36.3L16.2,36.3z"/>
	<path class="st2" d="M35.2,32.7l1.6,0.1c0.3,0,0.7,0.4,0.7,0.8c0,0.4-0.1,0.8-0.1,1.2c0,0.2-0.1,0.3-0.2,0.3
		c-0.1,0.1-0.1,0.2-0.1,0.3c0,0.1,0.1,0.3,0.1,0.4c0,0.1,0.1,0.2,0.2,0.2c0.1,0,0.1,0,0.1,0.1c0,0.3-0.1,0.5-0.1,0.8
		c0,0.1-0.1,0.1-0.1,0.1c-0.4,0-0.8-0.1-1.1-0.1C36.1,37,36,37,36,36.9c0-0.3,0-0.5,0-0.8c0-0.1,0-0.1,0.1-0.1
		c0.2,0,0.1-0.1,0.1-0.2c-0.1-0.4-0.3-0.5-0.7-0.4c-0.1,0-0.1,0-0.1,0.1c0,0,0,0,0,0c0,0.1,0,0.2,0,0.3c0,0.1,0,0.2,0.1,0.2
		c0.1,0,0.1,0.1,0.1,0.1c0,0.3,0,0.5-0.1,0.8c0,0.1-0.1,0.1-0.1,0.1c-0.4,0-0.8,0-1.2,0c-0.1,0-0.1-0.1-0.1-0.1c0-0.3,0-0.5,0-0.8
		c0-0.1,0-0.2,0.2-0.1c0.1,0,0.1,0,0.1-0.1c0-0.6,0-1.3,0.1-1.9c0-0.1,0-0.1-0.1-0.1c-0.2,0-0.2-0.1-0.2-0.2c0-0.2,0-0.5,0.1-0.7
		c0-0.1,0.1-0.1,0.2-0.1C34.8,32.7,35,32.7,35.2,32.7L35.2,32.7z M36.2,34.5c0.3,0,0.3,0,0.3-0.3c0-0.1,0-0.1,0-0.2
		c0-0.1,0-0.1-0.1-0.1c-0.2,0-0.4,0-0.6,0c-0.1,0-0.2,0-0.2,0.2C35.6,34.5,35.6,34.5,36.2,34.5L36.2,34.5z"/>
	<path class="st2" d="M22.7,37.5c0,0.1,0,0.1-0.1,0.2c-0.4,0.1-0.8,0.1-1.2,0.2c-0.1,0-0.1,0-0.1-0.1c0-0.3-0.1-0.5-0.1-0.8
		c0-0.1,0-0.1,0.1-0.1c0.1,0,0.1,0,0.1-0.1c0-0.1-0.1-0.2-0.2-0.2c-0.3,0-0.6,0.1-0.9,0.2c-0.1,0-0.1,0.1-0.1,0.2
		c0,0.1,0.1,0.1,0.1,0.1c0.1,0,0.1,0,0.1,0.1c0,0.3,0.1,0.5,0.1,0.8c0,0.1,0,0.1-0.1,0.2c-0.4,0.1-0.8,0.1-1.1,0.2
		c-0.1,0-0.2,0-0.2-0.1c-0.1-0.2-0.1-0.5-0.2-0.7c0-0.1,0-0.2,0.1-0.2c0.1,0,0.1-0.1,0.1-0.2c0.1-0.6,0.2-1.3,0.2-1.9
		c0-0.1,0-0.2-0.1-0.1c-0.1,0-0.1-0.1-0.1-0.1c0-0.3-0.1-0.5-0.1-0.8c0-0.1,0-0.2,0.1-0.2c0.6-0.1,1.3-0.2,1.9-0.3
		c0.1,0,0.2,0,0.2,0.2c0,0.2,0.1,0.4,0.1,0.6c0,0.1,0.1,0.3-0.1,0.3c-0.1,0,0,0.1,0,0.1c0.3,0.6,0.6,1.2,0.9,1.8
		c0,0.1,0,0.1,0.1,0.1c0.2,0,0.2,0.1,0.2,0.2C22.7,37,22.7,37.3,22.7,37.5z M20.4,35c0,0.2,0,0.3-0.1,0.5c-0.1,0.4-0.1,0.4,0.3,0.3
		c0.2,0,0.2-0.1,0.1-0.2C20.6,35.4,20.5,35.2,20.4,35z"/>
	<path class="st2" d="M27.6,37.1c-0.1,0-0.1,0-0.2,0c-0.1,0-0.2,0-0.2-0.1c0-0.2,0-0.5-0.1-0.7c0-0.1,0-0.1,0.1-0.2
		c0.1,0,0.1,0,0.1-0.1c0-0.1-0.1-0.2-0.2-0.2c-0.3,0-0.5,0-0.8,0.1c-0.1,0-0.2,0.1-0.2,0.2c0,0.1,0.1,0.1,0.1,0.1
		c0.1,0,0.1,0.1,0.1,0.2c0,0.2,0,0.5,0.1,0.7c0,0.1,0,0.2-0.1,0.2c-0.4,0-0.8,0.1-1.1,0.1c-0.1,0-0.2,0-0.2-0.2
		c0-0.2-0.1-0.5-0.1-0.7c0-0.1,0-0.2,0.1-0.2c0.1,0,0.1-0.1,0.2-0.2c0.1-0.6,0.3-1.2,0.4-1.9c0-0.1,0.1-0.2-0.1-0.2
		c-0.1,0-0.1-0.1-0.1-0.1c0-0.3,0-0.5,0-0.8c0-0.1,0-0.1,0.1-0.1c0.7-0.1,1.3-0.1,2-0.2c0.1,0,0.2,0,0.2,0.1c0,0.2,0.1,0.5,0.1,0.7
		c0,0,0,0.1,0,0.1c-0.2,0-0.1,0.2-0.1,0.3c0.2,0.6,0.5,1.2,0.7,1.7c0,0.1,0.1,0.2,0.2,0.1c0.1,0,0.1,0,0.1,0.1c0,0.2,0,0.5,0,0.7
		c0,0.1-0.1,0.2-0.2,0.2C28.2,37,27.9,37,27.6,37.1L27.6,37.1z M26.7,34.2L26.7,34.2c-0.1,0.1-0.1,0.3-0.1,0.4
		C26.4,35,26.4,35,26.8,35c0.1,0,0.1-0.1,0.1-0.2C26.8,34.6,26.7,34.4,26.7,34.2z"/>
	<path class="st2" d="M37.9,36.6c0-0.1,0-0.2,0-0.2c0-0.1,0-0.3,0.2-0.3c0.1,0,0.1-0.1,0.1-0.1c0.3-0.6,0.5-1.2,0.8-1.8
		c0-0.1,0.1-0.2-0.1-0.2c-0.1,0-0.1-0.1-0.1-0.1c0-0.3,0.1-0.5,0.1-0.8c0-0.1,0.1-0.1,0.2-0.1c0.7,0.1,1.3,0.2,2,0.2
		c0.1,0,0.1,0.1,0.1,0.2c0,0.2,0,0.4-0.1,0.7c0,0.1,0,0.2-0.2,0.2c-0.1,0-0.1,0.1,0,0.1c0.1,0.7,0.2,1.3,0.4,2c0,0.1,0,0.1,0.1,0.1
		c0.1,0,0.2,0.1,0.1,0.2c-0.1,0.2-0.1,0.5-0.1,0.7c0,0.1-0.1,0.2-0.2,0.1c-0.4-0.1-0.8-0.1-1.1-0.2c-0.1,0-0.1-0.1-0.1-0.2
		c0-0.2,0.1-0.5,0.1-0.7c0-0.1,0-0.2,0.1-0.1c0.1,0,0.1,0,0.1-0.1c0-0.1,0-0.2-0.1-0.2C40,36,39.7,36,39.4,36
		c-0.1,0-0.1,0.1-0.2,0.2c0,0.1,0,0.1,0.1,0.1c0.1,0,0.1,0.1,0.1,0.1c0,0.3-0.1,0.5-0.1,0.8c0,0.1-0.1,0.1-0.2,0.1
		c-0.4,0-0.8-0.1-1.2-0.1c-0.1,0-0.1-0.1-0.1-0.2C37.9,36.9,37.9,36.8,37.9,36.6L37.9,36.6z M40,34.4c-0.1,0.2-0.2,0.3-0.2,0.4
		c-0.1,0.3-0.1,0.4,0.3,0.4c0.1,0,0.1,0,0.1-0.1C40.1,34.9,40.1,34.7,40,34.4z"/>
	<path class="st2" d="M45.9,37.3c0.1,0.1,0.2,0,0.2-0.1c0.1-0.6,0.3-1.2,0.4-1.8c0-0.1,0-0.2-0.1-0.2c-0.1,0-0.1-0.1-0.1-0.2
		c0.1-0.2,0.1-0.5,0.2-0.7c0-0.1,0.1-0.1,0.2-0.1c0.8,0.2,1.5,0.4,2.3,0.5c0.1,0,0.1,0,0.1,0.1c0.2,0.3,0.3,0.6,0.2,1
		c-0.3,0.8-0.5,1.7-0.7,2.5c0,0.2-0.2,0.2-0.4,0.3c-0.2,0.2-0.4,0.2-0.6,0.1c-0.6-0.2-1.3-0.3-1.9-0.4c-0.2,0-0.2-0.1-0.2-0.2
		c0-0.2,0.1-0.5,0.1-0.7C45.8,37.3,45.8,37.3,45.9,37.3z M48.3,35.8c0-0.1,0-0.1-0.1-0.2c-0.2,0-0.4-0.1-0.6-0.1
		c-0.1,0-0.2,0-0.2,0.1c-0.1,0.5-0.2,0.9-0.3,1.4c-0.1,0.5-0.1,0.5,0.4,0.6c0.3,0.1,0.3,0.1,0.4-0.3C48.1,36.9,48.2,36.3,48.3,35.8z
		"/>
	<path class="st2" d="M51.7,36.7c0-0.1,0-0.1-0.1-0.2c-0.2-0.1-0.4-0.1-0.6-0.2c-0.1,0-0.1,0-0.1,0c-0.1,0.2-0.1,0.3-0.1,0.5
		c0,0.1,0.1,0.1,0.1,0.1c0.2,0.1,0.4,0.1,0.6,0.2c0.2,0,0.2,0.1,0.1,0.3c-0.1,0.2-0.1,0.3-0.2,0.5c0,0.1-0.1,0.1-0.2,0.1
		c-0.2-0.1-0.4-0.1-0.6-0.2c-0.1,0-0.1,0-0.2,0.1c-0.1,0.4-0.1,0.4,0.3,0.6c0.1,0,0.2,0.1,0.3,0.1c0.1,0,0.2,0.1,0.2-0.1
		c0-0.1,0.1-0.1,0.1-0.1c0,0,0,0,0,0c0.2,0.1,0.5,0.1,0.7,0.2c0.1,0.2-0.1,0.4-0.2,0.6c0,0.1,0,0.1-0.1,0.2
		c-0.2,0.4-0.1,0.4-0.5,0.2c-0.7-0.2-1.5-0.4-2.2-0.6c-0.1,0-0.2-0.1-0.1-0.2c0.1-0.2,0.1-0.5,0.1-0.7c0-0.1,0.1-0.2,0.2-0.1
		s0.2,0,0.2-0.1c0.2-0.6,0.3-1.2,0.5-1.7c0-0.1,0-0.2-0.1-0.2c-0.1,0-0.1-0.1-0.1-0.2c0.1-0.2,0.2-0.5,0.2-0.7
		c0-0.2,0.1-0.1,0.3-0.1c0.8,0.2,1.5,0.4,2.3,0.7c0.5,0.1,0.5,0.1,0.3,0.6c-0.1,0.2-0.1,0.4-0.2,0.6c0,0.2-0.1,0.2-0.2,0.1
		C52.2,37,52,37,51.8,36.9C51.7,36.9,51.7,36.8,51.7,36.7z"/>
	<path class="st2" d="M31.2,34.8c0-0.5,0-1,0-1.4c0-0.3,0.4-0.7,0.7-0.7c0.5,0,1,0,1.5,0c0.1,0,0.2,0.1,0.3,0.1
		c0.4,0.3,0.4,0.7,0.4,1.1c0,0.1,0,0.1-0.1,0.1c-0.2,0-0.5,0-0.7,0c-0.1,0-0.1,0-0.1-0.1c0-0.2-0.1-0.2-0.2-0.2c-0.2,0-0.4,0-0.5,0
		c-0.1,0-0.1,0-0.1,0.1c0,0.6,0,1.3,0,1.9c0,0.1,0,0.1,0.1,0.1c0.2,0,0.4,0,0.6,0c0.1,0,0.1,0,0.1-0.1c0,0,0-0.1,0-0.1
		c0-0.3,0-0.3-0.3-0.4c-0.1,0-0.2,0-0.2-0.1c0-0.2,0-0.4,0-0.6c0-0.1,0-0.2,0.2-0.2c0.4,0,0.8,0,1.2,0c0.1,0,0.1,0.1,0.1,0.2
		c0,0.6,0,1.1,0,1.7c0,0.3-0.4,0.7-0.7,0.7c-0.4,0-0.9,0-1.3,0c-0.1,0-0.2,0-0.3-0.1c-0.3-0.2-0.4-0.5-0.3-0.8
		C31.2,35.5,31.2,35.2,31.2,34.8L31.2,34.8z"/>
	<path class="st2" d="M14.7,37.1c0,0.2-0.2,0.3-0.2,0.5c-0.1,0.2-0.2,0.2-0.4,0.3c-0.3,0.1-0.6,0.2-0.8,0.2c-0.1,0-0.2,0.1-0.1,0.2
		c0,0.1,0.1,0.1,0.1,0.2c0,0.1,0.1,0.2,0.2,0.1c0.1,0,0.2,0,0.2,0.1c0.1,0.2,0.1,0.5,0.2,0.7c0,0.1,0,0.1-0.1,0.2
		c-0.4,0.1-0.8,0.2-1.1,0.4c-0.1,0-0.1,0-0.1-0.1c-0.1-0.2-0.2-0.5-0.3-0.7c0-0.1,0-0.2,0.1-0.2c0.1,0,0.1-0.1,0.1-0.2
		c-0.2-0.6-0.4-1.2-0.6-1.8c0-0.1-0.1-0.1-0.2-0.1c-0.1,0.1-0.2,0-0.2-0.1c-0.1-0.2-0.1-0.5-0.2-0.7c0-0.1,0-0.2,0.1-0.2
		c0.7-0.2,1.5-0.5,2.3-0.7c0.1,0,0.2,0,0.3,0c0.3,0.2,0.6,0.4,0.6,0.8C14.5,36.4,14.6,36.7,14.7,37.1z M12.9,37.2
		c0.1,0,0.2-0.1,0.3-0.1c0.6-0.1,0.6-0.2,0.3-0.7c0-0.1-0.1-0.1-0.1-0.1c-0.2,0.1-0.4,0.1-0.7,0.2c-0.1,0-0.1,0-0.1,0.1
		C12.7,36.8,12.7,37,12.9,37.2C12.8,37.2,12.8,37.2,12.9,37.2z"/>
	<path class="st2" d="M24.6,37.1c0,0.2,0,0.2-0.2,0.2c-0.3,0-0.7,0.1-1,0.1c-0.1,0-0.2,0-0.2-0.1c0-0.2-0.1-0.5-0.1-0.7
		c0-0.1,0-0.2,0.1-0.2c0.1,0,0.1-0.1,0.1-0.2c-0.1-0.6-0.2-1.2-0.2-1.8c0-0.1-0.1-0.2-0.2-0.2c-0.1,0-0.2,0-0.2-0.1
		c0-0.2,0-0.5-0.1-0.7c0-0.1,0-0.2,0.1-0.2c0.4,0,0.7-0.1,1.1-0.1c0.1,0,0.2,0,0.2,0.2c0,0.2,0.1,0.5,0.1,0.7c0,0.1,0,0.2-0.1,0.2
		c-0.1,0-0.1,0.1-0.1,0.2c0.1,0.6,0.2,1.2,0.2,1.8c0,0.1,0.1,0.2,0.2,0.1s0.1,0,0.1,0.1C24.5,36.7,24.5,36.9,24.6,37.1z"/>
	<path class="st0" d="M43.4,36c0-0.1,0-0.2,0.1-0.3c0,0.1,0.1,0.2,0.1,0.3L43.4,36z"/>
	<path class="st0" d="M43.4,36.2C43.4,36.2,43.4,36.1,43.4,36.2C43.4,36.1,43.4,36.2,43.4,36.2z"/>
	<path class="st2" d="M16.9,24c0-1.1,0-2.2,0-3.4c0-0.2-0.1-0.2-0.2-0.2c-0.5,0-0.5,0-0.5-0.5c0-0.5,0-0.5,0.5-0.5c1.7,0,3.3,0,5,0
		c0.2,0,0.2,0,0.2,0.2c0,0.4,0,0.8,0,1.2c0,0.2,0,0.2-0.2,0.2c-0.2,0-0.3,0-0.5,0c-0.2,0-0.2-0.1-0.2-0.2c0-0.4,0-0.4-0.4-0.4
		c-0.8,0-1.6,0-2.4,0c-0.1,0-0.2,0-0.2,0.2c0,0.9,0,1.8,0,2.7c0,0.2,0.1,0.2,0.2,0.2c0.7,0,1.3,0,2,0c0.2,0,0.2,0,0.2,0.2
		c0,0.2,0.1,0.5,0,0.6c-0.1,0.1-0.4,0-0.6,0c-0.5,0-1,0-1.5,0c-0.1,0-0.2,0-0.2,0.2c0,1,0,1.9,0,2.9c0,0.1,0.1,0.2,0.2,0.2
		c0.9,0,1.8,0,2.7,0c0.2,0,0.2-0.1,0.2-0.2c0,0,0,0,0-0.1c0-0.2-0.1-0.4,0-0.5c0.2-0.1,0.5,0,0.7,0c0.1,0,0.1,0.1,0.1,0.1
		c0,0.5,0,1,0,1.5c0,0.1,0,0.1-0.1,0.1c-0.1,0-0.2,0-0.3,0c-1.7,0-3.4,0-5.2,0c-0.2,0-0.2,0-0.2-0.2c0-0.2,0-0.4,0-0.5
		c0-0.1,0-0.2,0.2-0.2c0,0,0,0,0,0c0.5,0,0.5,0,0.5-0.5L16.9,24z"/>
	<path class="st2" d="M28.4,24c0,1.1,0,2.2,0,3.4c0,0.2,0,0.2,0.2,0.2c0.5,0,0.5,0,0.5,0.5c0,0.5,0,0.5-0.5,0.5c-0.6,0-1.3,0-1.9,0
		c-0.2,0-0.2,0-0.2-0.2c0-0.2,0-0.4,0-0.6c0-0.1,0.1-0.2,0.2-0.2c0,0,0,0,0.1,0c0.5,0,0.5,0,0.5-0.5c0-2.1,0-4.3,0-6.4
		c0-0.3,0-0.3-0.3-0.3c-0.5,0-1,0-1.5,0c-0.2,0-0.2,0-0.2,0.2c0,0.3,0,0.5,0,0.8c0,0.1,0,0.2-0.2,0.2c-0.6,0-0.6,0-0.6-0.6
		c0-0.5,0-0.9,0-1.4c0-0.2,0-0.2,0.2-0.2c2.1,0,4.2,0,6.3,0c0.2,0,0.2,0.1,0.2,0.3c0,0.6,0,1.1,0,1.7c0,0.1,0,0.2-0.2,0.2
		c-0.6,0-0.6,0-0.6-0.5c0-0.2,0-0.3,0-0.5c0-0.1,0-0.1-0.1-0.1c-0.6,0-1.2,0-1.8,0c-0.2,0-0.1,0.1-0.1,0.2c0,1,0,2,0,3
		C28.4,23.7,28.4,23.9,28.4,24L28.4,24z"/>
	<path class="st2" d="M34.7,24c0-1.1,0-2.2,0-3.3c0-0.2,0-0.3-0.3-0.3c-0.4,0-0.4,0-0.4-0.4c0-0.6,0-0.6,0.6-0.6c1.7,0,3.3,0,5,0
		c0.1,0,0.2,0,0.2,0.2c0,0.4,0,0.8,0,1.3c0,0.1,0,0.2-0.2,0.2c0,0-0.1,0-0.1,0c-0.2,0-0.4,0.1-0.5,0s0-0.3,0-0.5
		c0-0.1,0-0.1-0.1-0.1c-0.9,0-1.9,0-2.8,0c-0.1,0-0.1,0.1-0.1,0.2c0,0.9,0,1.8,0,2.7c0,0.2,0.1,0.2,0.2,0.2c0.6,0,1.3,0,1.9,0
		c0.2,0,0.3,0,0.2,0.2c0,0.1,0,0.3,0,0.4c0,0.1,0,0.2-0.2,0.2c-0.7,0-1.3,0-2,0c-0.2,0-0.2,0-0.2,0.2c0,0.9,0,1.9,0,2.8
		c0,0.1,0,0.2,0.2,0.2c0.9,0,1.8,0,2.7,0c0.1,0,0.2-0.1,0.2-0.2c0-0.2,0-0.3,0-0.5c0-0.1,0-0.2,0.2-0.1c0.2,0,0.4,0,0.5,0
		c0.1,0,0.1,0,0.1,0.2c0,0.5,0,1,0,1.4c0,0.1,0,0.2-0.2,0.2c-1.8,0-3.6,0-5.4,0c-0.1,0-0.2,0-0.2-0.1c0-0.2,0-0.4,0-0.7
		c0-0.1,0-0.1,0.1-0.1c0.1,0,0.2,0,0.3,0c0.3,0,0.3,0,0.3-0.3c0-0.5,0-1,0-1.6L34.7,24L34.7,24z"/>
	<path class="st2" d="M42.7,23.9c0-1,0-2,0-2.9c0-0.1,0-0.2,0.1-0.3c0.3-0.4,0.7-0.7,1-1.1c0.1-0.1,0.2-0.1,0.3-0.1
		c0.8,0,1.6,0,2.4,0c0.1,0,0.2,0,0.3,0.1c0.3,0.4,0.6,0.7,0.9,1.1c0.1,0.1,0.1,0.2,0.1,0.3c0,0.2,0,0.5,0,0.7c0,0.1,0,0.2-0.2,0.2
		c-0.2,0-0.4,0-0.7,0c-0.1,0-0.2,0-0.1-0.1c0-0.1,0-0.1,0-0.2c0.1-0.5-0.2-0.7-0.5-1c-0.1,0-0.1-0.1-0.2-0.1c-0.6,0-1.1,0-1.7,0
		c-0.2,0-0.3,0.2-0.4,0.3c-0.3,0.2-0.4,0.4-0.3,0.8c0,1.7,0,3.5,0,5.2c0,0.2,0,0.3,0.2,0.4c0.1,0.1,0.3,0.3,0.4,0.4
		c0.1,0.1,0.1,0.1,0.2,0.1c0.5,0,1.1,0,1.6,0c0,0,0.1,0,0.1,0c0.2,0,0.6-0.6,0.6-0.8c0-0.2,0-0.5,0-0.7c0-0.1,0-0.2,0.2-0.2
		c0.2,0,0.4,0,0.6,0c0.1,0,0.2,0,0.2,0.2c0,0.3,0,0.6,0,0.9c0,0.1,0,0.2-0.1,0.2c-0.4,0.4-0.8,0.8-1.1,1.2c-0.1,0.1-0.1,0.1-0.2,0.1
		c-0.8,0-1.5,0-2.3,0c-0.1,0-0.2,0-0.3-0.1c-0.3-0.4-0.7-0.8-1-1.2c-0.1-0.1-0.1-0.2-0.1-0.3C42.7,25.9,42.7,24.9,42.7,23.9
		L42.7,23.9z"/>
	<path class="st1" d="M16.2,36.3C16.2,36.3,16.2,36.3,16.2,36.3c-0.1-0.1-0.1-0.2-0.1-0.3c-0.1-0.4-0.1-0.4,0.3-0.5
		c0.5-0.1,0.5-0.1,0.6,0.4c0,0.1,0,0.2-0.1,0.2C16.7,36.2,16.5,36.3,16.2,36.3z"/>
	<path class="st1" d="M36.2,34.5L36.2,34.5c-0.6,0-0.6,0-0.5-0.6c0-0.1,0-0.2,0.2-0.2c0.2,0,0.4,0,0.6,0c0.1,0,0.1,0.1,0.1,0.1
		c0,0.1,0,0.1,0,0.2C36.5,34.5,36.5,34.5,36.2,34.5z"/>
	<path class="st1" d="M20.4,35c0.1,0.2,0.2,0.4,0.3,0.6c0.1,0.1,0.1,0.2-0.1,0.2c-0.4,0.1-0.4,0.1-0.3-0.3
		C20.4,35.3,20.4,35.2,20.4,35z"/>
	<path class="st1" d="M26.7,34.2c0.1,0.2,0.2,0.4,0.2,0.6c0,0.1,0,0.1-0.1,0.2c-0.4,0.1-0.4,0-0.3-0.3
		C26.5,34.5,26.6,34.4,26.7,34.2L26.7,34.2z"/>
	<path class="st1" d="M40,34.4c0.1,0.3,0.1,0.5,0.1,0.7c0,0.1,0,0.1-0.1,0.1c-0.4,0-0.4,0-0.3-0.4C39.9,34.7,39.9,34.6,40,34.4z"/>
	<path class="st1" d="M48.3,35.8c-0.1,0.5-0.3,1.1-0.4,1.6c-0.1,0.3-0.1,0.3-0.4,0.3C47,37.5,47,37.5,47.1,37
		c0.1-0.5,0.2-0.9,0.3-1.4c0-0.1,0.1-0.2,0.2-0.1c0.2,0.1,0.4,0.1,0.6,0.1C48.3,35.6,48.3,35.7,48.3,35.8z"/>
	<path class="st1" d="M12.9,37.2C12.8,37.2,12.8,37.2,12.9,37.2c-0.1-0.3-0.2-0.4-0.2-0.6c0-0.1,0-0.1,0.1-0.1
		c0.2-0.1,0.4-0.1,0.7-0.2c0.1,0,0.1,0,0.1,0.1c0.2,0.5,0.2,0.6-0.3,0.7C13.1,37.2,13,37.2,12.9,37.2z"/>
</g>
</svg>
